<svg width="18" height="18" viewBox="0 0 18 18" fill="none" xmlns="http://www.w3.org/2000/svg">
<g id="ic_camera_18">
<path id="Vector" d="M10.8975 1.60953C11.3963 1.60953 11.8605 1.86667 12.1247 2.29032L13.1025 3.85696H14.6254C15.1795 3.85696 15.7109 4.07708 16.1028 4.4689C16.4946 4.86071 16.7147 5.39213 16.7147 5.94624V13.982C16.7147 14.5361 16.4946 15.0675 16.1028 15.4593C15.7109 15.8511 15.1795 16.0712 14.6254 16.0712H3.37542C2.82131 16.0712 2.28989 15.8511 1.89807 15.4593C1.50625 15.0675 1.28613 14.5361 1.28613 13.982V5.94624C1.28613 5.39213 1.50625 4.86071 1.89807 4.4689C2.28989 4.07708 2.82131 3.85696 3.37542 3.85696H5.02692L5.9147 2.32889C6.04187 2.10994 6.22428 1.9282 6.4437 1.80185C6.66312 1.6755 6.91186 1.60896 7.16506 1.60889L10.8975 1.60953ZM9.00042 6.10953C8.5361 6.10953 8.07633 6.20098 7.64736 6.37867C7.21839 6.55636 6.82861 6.8168 6.50029 7.14512C6.17197 7.47344 5.91153 7.86321 5.73384 8.29219C5.55616 8.72116 5.4647 9.18093 5.4647 9.64524C5.4647 10.1096 5.55616 10.5693 5.73384 10.9983C5.91153 11.4273 6.17197 11.8171 6.50029 12.1454C6.82861 12.4737 7.21839 12.7341 7.64736 12.9118C8.07633 13.0895 8.5361 13.181 9.00042 13.181C9.93815 13.181 10.8375 12.8084 11.5005 12.1454C12.1636 11.4823 12.5361 10.583 12.5361 9.64524C12.5361 8.70751 12.1636 7.80819 11.5005 7.14512C10.8375 6.48204 9.93815 6.10953 9.00042 6.10953ZM9.00042 7.07382C9.6824 7.07382 10.3365 7.34473 10.8187 7.82697C11.3009 8.30921 11.5718 8.96326 11.5718 9.64524C11.5718 10.3272 11.3009 10.9813 10.8187 11.4635C10.3365 11.9458 9.6824 12.2167 9.00042 12.2167C8.31843 12.2167 7.66438 11.9458 7.18214 11.4635C6.69991 10.9813 6.42899 10.3272 6.42899 9.64524C6.42899 8.96326 6.69991 8.30921 7.18214 7.82697C7.66438 7.34473 8.31843 7.07382 9.00042 7.07382Z" fill="#999AAB"/>
</g>
</svg>
