<svg width="200" height="200" viewBox="0 0 200 200" fill="none" xmlns="http://www.w3.org/2000/svg">
<g clip-path="url(#clip0_128_12000)">
<path d="M98.2923 190.189C148.059 190.189 188.403 149.853 188.403 100.095C188.403 50.3367 148.059 10 98.2923 10C48.5254 10 8.1814 50.3367 8.1814 100.095C8.1814 149.853 48.5254 190.189 98.2923 190.189Z" fill="white" stroke="#42BDCC" stroke-width="9.04952" stroke-miterlimit="10"/>
<path d="M33.0333 76.9387L43.2927 88.5992C44.7565 90.2267 45.3783 92.0302 45.1549 94.0119C44.9326 95.9926 43.6383 98.0228 41.2743 100.101C39.7412 101.449 38.2378 102.347 36.762 102.792C35.2872 103.237 33.9148 103.289 32.6481 102.947C31.3802 102.605 30.2907 101.933 29.3783 100.934L19.1442 89.3013C18.267 88.3043 17.7343 87.16 17.5472 85.867C17.3601 84.5741 17.5858 83.2217 18.2252 81.8067C18.8646 80.3927 19.9608 79.0029 21.5115 77.6385C23.0633 76.274 24.5402 75.3849 25.9434 74.969C27.3467 74.5542 28.6431 74.5278 29.8306 74.8909C31.0181 75.2551 32.0857 75.9373 33.0322 76.9387H33.0333ZM34.6038 92.017L28.6827 85.286C28.6178 85.2123 28.5309 85.1419 28.4219 85.0737C28.313 85.0054 28.1567 85.0616 27.9542 85.2398C27.7693 85.4027 27.7043 85.5424 27.7572 85.658C27.8111 85.7746 27.8705 85.8703 27.9355 85.944L33.8565 92.675C33.9049 92.73 33.9842 92.7927 34.0931 92.8599C34.2021 92.9281 34.3485 92.8808 34.5333 92.7179C34.7358 92.5396 34.8118 92.3922 34.7579 92.2745C34.7039 92.1578 34.6533 92.072 34.6049 92.0159L34.6038 92.017ZM42.1636 70.7282L43.9091 69.1932L50.7072 76.9211L48.9617 78.4561L57.3932 88.0392L49.9137 94.6171L28.8599 70.6864L36.3394 64.1084L42.1636 70.7282Z" fill="#42BDCC"/>
<path d="M57.3756 84.3629L45.2749 59.1139L54.425 54.73L61.9661 70.4652C63.4298 69.7643 64.7648 68.9071 65.9699 67.8926C67.175 66.8792 68.1479 65.9218 68.8897 65.0217L73.019 69.7115L63.2779 49.3855L72.395 45.0182L86.2181 73.8599L77.101 78.2272L75.2356 74.3352C74.6324 74.8425 73.8554 75.4257 72.9046 76.0859C71.9526 76.7461 70.9379 77.403 69.8593 78.0556C68.7819 78.7092 67.7451 79.3078 66.7513 79.8514C65.7575 80.396 64.9222 80.8164 64.2464 81.1124L57.3767 84.3629H57.3756Z" fill="#42BDCC"/>
<path d="M102.864 48.0936L101.208 38.7592L111.016 37.0195L116.585 68.4009L106.777 70.1405L104.662 58.2269L102.701 58.5746L103.261 61.7348C103.668 63.8861 103.256 65.7512 102.024 67.3302C100.793 68.9103 98.5796 69.9832 95.3825 70.5499C93.2265 70.9328 91.3665 70.9383 89.8015 70.5653C88.2365 70.1933 86.9951 69.5331 86.0772 68.5846C85.1594 67.6361 84.5695 66.4983 84.3097 65.1702L81.6034 49.9147C81.3712 48.6075 81.5165 47.352 82.0404 46.1471C82.5631 44.9433 83.4964 43.8979 84.8369 43.0099C86.1785 42.123 87.9504 41.4837 90.1548 41.0931C92.2624 40.719 94.0288 40.719 95.4562 41.0898C96.8837 41.4617 98.0162 42.1098 98.8548 43.0341C99.6934 43.9595 100.257 45.0962 100.546 46.4431L100.901 48.4413L102.862 48.0936H102.864ZM93.8791 60.1767L92.313 51.3507C92.2954 51.2539 92.258 51.1482 92.2008 51.0338C92.1424 50.9193 91.9928 50.883 91.7506 50.926C91.5085 50.9689 91.3742 51.0558 91.3467 51.1845C91.3192 51.3144 91.3148 51.4277 91.3324 51.5245L92.8985 60.3506C92.9117 60.4232 92.9525 60.5156 93.0229 60.6279C93.0922 60.7412 93.2485 60.7753 93.4906 60.7324C93.7328 60.6895 93.8615 60.6048 93.8758 60.4771C93.8912 60.3495 93.8912 60.2493 93.8791 60.1767Z" fill="#42BDCC"/>
<path d="M117.105 53.9267L148.248 56.0284L147.622 65.3033L143.647 65.0349L143.287 70.3716L133.348 69.7004L133.707 64.3636L130.395 64.1403L130.035 69.477L120.096 68.8058L120.456 63.469L116.48 63.2006L117.107 53.9256L117.105 53.9267ZM139.48 54.4394L126.007 53.5305C124.656 53.4392 123.367 53.02 122.135 52.2706C120.903 51.5224 119.924 50.5078 119.198 49.2259C118.47 47.9451 118.165 46.4453 118.281 44.7276C118.386 43.1574 118.709 41.8546 119.247 40.818C119.785 39.7815 120.474 38.9727 121.315 38.3884C122.155 37.8041 123.076 37.4047 124.077 37.1879C125.078 36.9722 126.094 36.8985 127.125 36.9678L140.598 37.8767C142.071 37.9758 143.415 38.3257 144.632 38.9254C145.849 39.5251 146.803 40.4527 147.494 41.7071C148.186 42.9615 148.46 44.644 148.319 46.7545C148.203 48.4722 147.703 49.9235 146.823 51.1086C145.941 52.2937 144.853 53.1696 143.557 53.7352C142.262 54.3008 140.902 54.5363 139.479 54.4394H139.48ZM138.193 45.5529L128.549 44.9015C128.352 44.8883 128.191 44.896 128.067 44.9246C127.942 44.9532 127.871 45.0907 127.855 45.335C127.838 45.5804 127.889 45.7323 128.009 45.7895C128.128 45.8467 128.286 45.8819 128.482 45.8951L138.126 46.5465C138.322 46.5597 138.484 46.5465 138.609 46.5047C138.735 46.464 138.806 46.3209 138.823 46.0756C138.839 45.8302 138.788 45.6849 138.668 45.6398C138.547 45.5947 138.389 45.5661 138.193 45.5529Z" fill="#42BDCC"/>
<path d="M169.566 42.495C169.241 40.7444 167.894 39.3623 166.153 38.9915L154.822 36.5817C154.518 36.5168 154.212 36.4849 153.906 36.4849C153.06 36.4849 152.224 36.7291 151.505 37.1979L151.461 37.2265C151.067 37.4829 150.72 37.7998 150.43 38.1596C149.402 36.7996 148.113 35.7322 146.578 34.9762C144.849 34.1235 142.937 33.6217 140.894 33.4842L127.421 32.5752C127.073 32.5521 126.721 32.54 126.375 32.54C125.294 32.54 124.208 32.6556 123.148 32.8845C121.581 33.2234 120.119 33.8583 118.802 34.7727C117.555 35.6398 116.511 36.7775 115.689 38.1607L115.35 36.2494C114.971 34.1158 113.115 32.616 111.02 32.616C110.765 32.616 110.506 32.638 110.247 32.6842L100.438 34.4239C98.9306 34.6913 97.7398 35.6959 97.1697 37.002C96.9705 36.9404 96.7691 36.8832 96.5633 36.8293C95.4935 36.5509 94.3181 36.41 93.069 36.41C91.9299 36.41 90.6907 36.5278 89.3865 36.7588C86.5581 37.2606 84.2755 38.1046 82.4078 39.3392C80.3498 40.7015 78.8684 42.4015 78.0034 44.3932C77.8295 44.7926 77.682 45.1964 77.5587 45.6036L76.3646 43.1135C75.6085 41.5344 74.0325 40.6134 72.3916 40.6134C71.7544 40.6134 71.1061 40.7521 70.492 41.047L61.3749 45.4143C60.3217 45.9183 59.5128 46.8206 59.1254 47.922C58.738 49.0235 58.8029 50.2328 59.3081 51.2859L64.8791 62.9101C64.549 63.2556 64.1704 63.6188 63.7478 63.9951L58.3957 52.8275C57.8917 51.7744 56.9892 50.9657 55.8875 50.5783C55.4132 50.4111 54.919 50.3285 54.426 50.3285C53.7733 50.3285 53.1229 50.4738 52.5231 50.761L43.373 55.1448C41.1807 56.1957 40.2551 58.8245 41.3051 61.0164L43.1463 64.8589C43.066 64.8732 42.9856 64.8897 42.9053 64.9073L39.6454 61.2013C38.7749 60.212 37.5598 59.707 36.3382 59.707C35.3059 59.707 34.2692 60.0679 33.4327 60.804L25.9533 67.382C25.0761 68.1534 24.5424 69.2405 24.4675 70.4058C24.4587 70.5445 24.4565 70.6842 24.4609 70.8218C22.5008 71.4457 20.5825 72.5966 18.607 74.3341C16.5897 76.1079 15.1127 78.0115 14.2169 79.9933C13.2286 82.1786 12.8841 84.3673 13.1934 86.4965C13.5037 88.6422 14.3952 90.5634 15.8413 92.2085L26.0755 103.842C26.0931 103.861 26.1107 103.881 26.1283 103.9C27.6096 105.524 29.419 106.633 31.5001 107.195C32.4235 107.445 33.3854 107.572 34.3616 107.572C35.5579 107.572 36.7949 107.381 38.0375 107.005C40.1131 106.379 42.1811 105.167 44.1841 103.406C45.9296 101.871 47.258 100.283 48.1616 98.6544C48.7185 98.8954 49.3172 99.0175 49.917 99.0175C50.9493 99.0175 51.986 98.6566 52.8225 97.9205L60.3019 91.3425C61.179 90.5711 61.7128 89.484 61.7877 88.3187C61.8119 87.9335 61.7855 87.5517 61.7117 87.1798L66.0766 85.1144C66.8635 84.7667 67.778 84.3067 68.8654 83.7103C69.9109 83.1381 71.0137 82.501 72.1396 81.8188C72.6392 81.5162 73.129 81.2114 73.6088 80.9033C74.125 81.5756 74.8282 82.0906 75.6394 82.3756C76.1137 82.5428 76.6079 82.6254 77.1009 82.6254C77.7535 82.6254 78.404 82.4801 79.0038 82.1929L88.1209 77.8256C89.1741 77.3216 89.983 76.4193 90.3704 75.3178C90.3924 75.2562 90.4122 75.1946 90.4309 75.1319C91.0462 75.2034 91.6801 75.2397 92.3316 75.2397C93.5246 75.2397 94.8101 75.1187 96.1517 74.881C98.9031 74.3935 101.183 73.5463 102.971 72.3524C103.748 73.6871 105.192 74.5399 106.771 74.5399C107.026 74.5399 107.285 74.5179 107.545 74.4717L117.353 72.732C117.53 72.7001 117.703 72.6572 117.874 72.6054C118.442 72.9389 119.095 73.149 119.797 73.1963L129.736 73.8676C129.836 73.8742 129.935 73.8775 130.034 73.8775C130.506 73.8775 130.972 73.8015 131.415 73.6552C131.921 73.9028 132.476 74.0524 133.049 74.0909L142.988 74.7622C143.087 74.7688 143.186 74.7721 143.286 74.7721C144.348 74.7721 145.377 74.388 146.181 73.6849C146.378 73.5133 146.558 73.324 146.719 73.1226C148.004 74.5971 149.888 75.6072 152.333 76.1277C153.309 76.3357 154.236 76.4402 155.09 76.4402C156.618 76.4402 157.989 76.109 159.168 75.4554C161.152 74.3528 162.496 72.5636 162.953 70.4168L163.567 67.5306C163.746 66.6866 163.786 65.8426 163.691 65.0206C163.994 64.6135 164.23 64.148 164.381 63.6353C164.563 63.0191 164.82 62.1267 165.171 60.9075C165.514 59.7136 165.901 58.3458 166.321 56.8394C166.741 55.3374 167.169 53.7782 167.593 52.2025C168.013 50.64 168.403 49.1413 168.751 47.746C169.056 46.5235 169.285 45.4847 169.445 44.5934C169.651 43.9277 169.699 43.2092 169.567 42.4939L169.566 42.495Z" fill="white"/>
<path d="M159.26 66.615L158.646 69.5012C158.451 70.4156 157.912 71.1177 157.028 71.6084C156.145 72.0992 154.885 72.1707 153.248 71.823C151.636 71.4797 150.516 70.8899 149.89 70.0536C149.263 69.2162 149.047 68.3414 149.242 67.427L149.848 64.5771C150.043 63.6627 150.596 62.9508 151.51 62.4413C152.423 61.9318 153.686 61.8482 155.298 62.1904C156.934 62.5381 158.056 63.1158 158.664 63.9246C159.271 64.7322 159.471 65.6301 159.26 66.6161V66.615ZM160.157 62.394L150.774 60.399C150.883 59.7685 151.018 58.8354 151.18 57.6008C151.342 56.3662 151.53 54.9786 151.745 53.4403C151.958 51.902 152.19 50.3362 152.442 48.7428C152.693 47.1495 152.94 45.6618 153.184 44.2809C153.427 42.8999 153.653 41.7786 153.862 40.9181L153.906 40.8895L165.238 43.2993L165.193 43.3279C165.057 44.2038 164.819 45.3229 164.48 46.6841C164.14 48.0452 163.761 49.5043 163.341 51.0624C162.922 52.6205 162.502 54.1522 162.08 55.6597C161.658 57.1672 161.278 58.513 160.939 59.697C160.599 60.8821 160.338 61.7822 160.157 62.3973V62.394Z" fill="#42BDCC"/>
<path d="M168.245 70.5477C164.421 61.5082 158.948 53.3908 151.976 46.4211C145.004 39.4514 136.885 33.9782 127.845 30.1544C118.483 26.1953 108.541 24.1882 98.2923 24.1882C88.0438 24.1882 78.1013 26.1953 68.7399 30.1544C59.6988 33.9782 51.5799 39.4503 44.609 46.4211C40.9012 50.1283 37.6171 54.16 34.7798 58.4833C35.8419 59.313 36.7851 60.2934 37.6556 61.3333C40.4433 56.9802 43.7032 52.9298 47.411 49.2226C54.0199 42.615 61.7161 37.4267 70.284 33.8032C79.1535 30.0521 88.5776 28.1506 98.2923 28.1506C108.007 28.1506 117.431 30.0521 126.301 33.8032C134.868 37.4267 142.565 42.6139 149.174 49.2226C155.782 55.8303 160.972 63.5252 164.596 72.0915C168.348 80.9594 170.249 90.3818 170.249 100.095C170.249 109.808 168.348 119.23 164.596 128.098C160.972 136.664 155.782 144.359 149.174 150.967C142.565 157.575 134.87 162.763 126.301 166.386C117.431 170.137 108.007 172.039 98.2923 172.039C88.5776 172.039 79.1535 170.137 70.284 166.386C61.7161 162.763 54.0199 157.575 47.411 150.967C40.8021 144.359 35.613 136.665 31.9888 128.098C28.6739 120.261 26.804 111.993 26.4133 103.473C24.987 102.057 23.6289 100.569 22.3809 98.9977C22.3754 99.363 22.3721 99.7283 22.3721 100.095C22.3721 110.341 24.3795 120.282 28.3393 129.642C32.1638 138.681 37.6369 146.799 44.609 153.768C51.581 160.738 59.6999 166.211 68.7399 170.035C78.1013 173.994 88.0438 176.001 98.2923 176.001C108.541 176.001 118.483 173.994 127.845 170.035C136.886 166.211 145.005 160.739 151.976 153.768C158.947 146.798 164.421 138.68 168.245 129.642C172.205 120.282 174.212 110.341 174.212 100.095C174.212 89.8481 172.205 79.9074 168.245 70.5477Z" fill="#42BDCC"/>
<path d="M94.6495 185.462C73.4933 179.454 74.1812 158.047 77.1703 148.094C74.4321 149.128 68.1941 150.025 65.1455 145.341C62.097 140.657 70.2169 135.585 74.6577 133.634C76.0345 127.623 83.1265 113.134 100.482 103.268C117.838 93.4026 136.14 94.8419 143.121 96.795C145.609 96.115 151.585 95.139 155.578 96.6795C159.57 98.2211 155.38 104.472 152.786 107.405C167.757 113.183 178.402 130.512 170.932 149.684C163.461 168.856 121.094 192.971 94.6495 185.461V185.462Z" fill="white"/>
<path d="M99.2608 100.127C116.753 90.3677 135.039 91.3679 143.139 93.3508C144.573 93.0207 146.514 92.6961 148.588 92.5728C151.081 92.4254 154.131 92.5442 156.78 93.5665L156.876 93.605C158.915 94.427 160.185 96.0709 160.491 98.0956C160.752 99.8286 160.261 101.52 159.738 102.79C159.271 103.925 158.635 105.062 157.95 106.115C172.216 113.786 181.505 131.388 174.137 150.649L174.041 150.897C171.904 156.381 167.429 161.899 161.798 166.912C156.121 171.966 149.053 176.701 141.409 180.559C126.402 188.134 108.431 192.694 94.0739 188.768L93.7349 188.673C81.9247 185.319 76.0235 177.506 73.643 169.175C71.9646 163.3 72.0362 157.219 72.8198 152.257C72.2035 152.27 71.5728 152.248 70.9345 152.184C68.0125 151.887 64.6811 150.628 62.4503 147.323L62.3446 147.164C60.97 145.051 60.8566 142.769 61.5632 140.724C62.2114 138.844 63.5024 137.272 64.789 136.047C66.8888 134.049 69.6017 132.393 71.8392 131.274C74.1383 123.82 81.9468 109.967 98.8294 100.37L99.2586 100.129L99.2608 100.127ZM142.221 100.01C135.954 98.2573 118.826 96.8577 102.517 105.954L102.132 106.171C85.8747 115.413 79.2933 128.823 77.9704 134.134L77.911 134.38C77.6832 135.377 77.0107 136.212 76.0896 136.65L75.9993 136.691C73.9699 137.582 71.2119 139.15 69.3937 140.881C68.477 141.754 68.0312 142.45 67.876 142.899C67.7781 143.183 67.7935 143.292 67.9432 143.521L68.0213 143.636C68.8412 144.816 70.064 145.384 71.6114 145.541C73.282 145.711 75.0033 145.344 75.9894 144.971C77.178 144.522 78.5174 144.786 79.4463 145.652C80.3751 146.518 80.7317 147.836 80.3663 149.052C79.0027 153.594 78.185 160.762 80.0637 167.339C81.8818 173.703 86.2147 179.596 95.5596 182.25L95.8425 182.33C107.847 185.61 123.976 181.88 138.4 174.6C145.588 170.971 152.164 166.552 157.359 161.927C162.6 157.26 166.221 152.575 167.819 148.473L167.973 148.069C174.392 130.979 164.929 115.671 151.581 110.519C150.561 110.125 149.799 109.258 149.54 108.196C149.281 107.134 149.559 106.013 150.283 105.194C151.467 103.856 152.891 101.882 153.563 100.251C153.672 99.9871 153.743 99.7714 153.792 99.6009C152.5 99.2355 150.808 99.1277 148.982 99.2366C147.052 99.3511 145.272 99.6867 144.205 99.9607L144.001 100.015C143.454 100.164 142.879 100.172 142.33 100.038L142.22 100.009L142.221 100.01Z" fill="#42BDCC"/>
<path d="M109.704 141.6C94.043 166.364 106.29 180.548 114.372 184.545C127.051 183.212 154.307 176.231 161.886 158.977C171.361 137.408 144.444 131.47 130.651 130.328C119.617 129.413 112.088 137.461 109.704 141.6Z" fill="#E1FCFF"/>
<path d="M98.8328 100.368C116.454 90.3512 134.973 91.3514 143.139 93.3508C144.573 93.0206 146.514 92.696 148.588 92.5728C151.081 92.4254 154.131 92.5442 156.78 93.5664L156.877 93.6049C158.915 94.4269 160.185 96.0709 160.491 98.0955C160.753 99.8286 160.261 101.52 159.738 102.79C159.271 103.925 158.635 105.062 157.95 106.115C172.278 113.819 181.584 131.539 174.041 150.897C171.904 156.381 167.429 161.899 161.798 166.912C156.122 171.966 149.053 176.701 141.409 180.559C126.402 188.134 108.431 192.694 94.0739 188.768L93.735 188.673C81.9248 185.319 76.0236 177.506 73.6431 169.175C71.9647 163.3 72.0362 157.219 72.8198 152.257C72.2035 152.27 71.5729 152.248 70.9346 152.184C67.9664 151.883 64.5744 150.588 62.3458 147.163C60.9712 145.05 60.8578 142.768 61.5644 140.723C62.2126 138.843 63.5036 137.271 64.7901 136.046C66.89 134.048 69.6029 132.392 71.8403 131.273C74.1394 123.819 81.9479 109.965 98.8306 100.369L98.8328 100.368ZM142.221 100.01C135.904 98.243 118.556 96.8356 102.132 106.171C85.8747 115.413 79.2934 128.823 77.9705 134.134L77.911 134.38C77.6755 135.409 76.9668 136.266 75.9994 136.691C73.9699 137.582 71.2119 139.15 69.3938 140.881C68.477 141.754 68.0313 142.45 67.8761 142.899C67.7782 143.183 67.7936 143.292 67.9432 143.521C68.7621 144.78 70.0145 145.379 71.6114 145.541C73.2821 145.711 75.0034 145.344 75.9895 144.971C77.1781 144.522 78.5175 144.786 79.4463 145.652C80.3752 146.518 80.7318 147.836 80.3664 149.052C79.0028 153.594 78.1851 160.762 80.0637 167.339C81.8819 173.703 86.2137 179.596 95.5597 182.25L95.8425 182.329C107.847 185.609 123.976 181.878 138.4 174.598C145.588 170.971 152.164 166.55 157.359 161.926C162.601 157.259 166.221 152.574 167.821 148.472C174.543 131.221 165.036 115.711 151.583 110.519C150.564 110.125 149.801 109.258 149.542 108.196C149.284 107.134 149.561 106.013 150.285 105.194L150.397 105.066C151.557 103.733 152.916 101.83 153.565 100.25C153.674 99.986 153.745 99.7703 153.794 99.5997C152.502 99.2344 150.81 99.1266 148.984 99.2355C147.054 99.35 145.274 99.6856 144.207 99.9596L144.003 100.013C143.42 100.173 142.805 100.171 142.224 100.008L142.221 100.01Z" fill="#42BDCC"/>
<path d="M112.993 136.102C108.37 141.224 116.83 139.967 121.638 138.697C126.472 135.437 129.498 131.031 128.123 129.937C126.749 128.843 118.771 129.699 112.993 136.102Z" fill="#42BDCC"/>
<path d="M98.1174 150.223C99.1937 149.671 100.51 150.079 101.088 151.134L101.114 151.185C101.913 152.739 103.581 154.342 105.972 154.485C108.355 154.628 112.214 153.374 117.5 147.542C118.873 145.026 122.88 141.177 129.92 140.639L130.083 140.626C133.534 140.306 137.913 138.158 141.127 135.276C142.741 133.83 143.924 132.318 144.545 130.943C145.159 129.585 145.15 128.559 144.78 127.779L144.756 127.726C144.268 126.627 144.744 125.333 145.838 124.815C146.948 124.289 148.276 124.762 148.802 125.872L148.852 125.981C149.891 128.269 149.549 130.676 148.601 132.775C147.646 134.89 146.004 136.881 144.098 138.589C140.383 141.919 135.138 144.63 130.481 145.058L130.259 145.077C124.504 145.517 121.861 148.72 121.351 149.783L121.214 150.069L121.001 150.306C115.226 156.754 110.088 159.191 105.705 158.928C101.302 158.664 98.4431 155.729 97.1544 153.219L97.129 153.168C96.6063 152.084 97.041 150.776 98.1174 150.223Z" fill="#42BDCC"/>
<path d="M124.692 136.34L127.716 141.959L121.837 145.123L118.812 139.503L124.692 136.34Z" fill="#42BDCC"/>
<path d="M162.596 114.874C165.011 113.335 167.596 111.986 170.164 111.158C172.677 110.348 175.333 109.987 177.84 110.6L177.959 110.63L178.015 110.645C179.172 110.974 179.862 112.168 179.561 113.34C179.26 114.512 178.08 115.224 176.908 114.954L176.852 114.941L176.716 114.908C175.307 114.582 173.564 114.74 171.529 115.394C169.444 116.067 167.211 117.211 164.99 118.627C160.683 121.373 156.672 124.978 154.224 127.538L153.992 127.782C153.15 128.677 151.741 128.719 150.846 127.877C149.952 127.034 149.909 125.626 150.752 124.731L151.002 124.468C153.638 121.711 157.922 117.856 162.597 114.875L162.596 114.874Z" fill="#42BDCC"/>
<path d="M169.609 122.325C172.405 121.707 175.297 121.327 177.993 121.43C180.631 121.531 183.25 122.105 185.395 123.539L185.498 123.609L185.544 123.642C186.518 124.348 186.757 125.706 186.071 126.703C185.387 127.7 184.033 127.965 183.025 127.309L182.977 127.277L182.862 127.2C181.649 126.41 179.959 125.96 177.822 125.878C175.632 125.793 173.143 126.102 170.571 126.67C165.583 127.771 160.579 129.781 157.4 131.345L157.099 131.495C156 132.046 154.663 131.603 154.112 130.505C153.56 129.407 154.004 128.07 155.102 127.518L155.427 127.357C158.85 125.671 164.197 123.521 169.611 122.325H169.609Z" fill="#42BDCC"/>
<path d="M73.7652 161.356C71.1502 162.523 68.5991 163.937 66.4949 165.624C64.4346 167.274 62.6704 169.293 61.801 171.723L61.7602 171.839L61.7426 171.894C61.3794 173.04 61.9958 174.274 63.1403 174.668C64.2838 175.062 65.5297 174.47 65.9501 173.342L65.9699 173.288L66.0172 173.157C66.5224 171.8 67.613 170.434 69.2804 169.097C70.9907 167.727 73.1753 166.493 75.5811 165.42C80.2453 163.338 85.4642 161.977 88.9497 161.345L89.2809 161.285C90.4916 161.075 91.3038 159.923 91.0925 158.713C90.8823 157.502 89.73 156.691 88.5193 156.901L88.1617 156.964C84.4076 157.645 78.83 159.097 73.7663 161.357L73.7652 161.356Z" fill="#42BDCC"/>
<path d="M76.1215 171.311C74.0657 173.304 72.1551 175.508 70.7573 177.814C69.3893 180.072 68.4242 182.572 68.4418 185.153V185.277L68.4451 185.334C68.4979 186.535 69.5005 187.483 70.71 187.46C71.9195 187.437 72.8858 186.454 72.8935 185.25V185.193L72.8924 185.053C72.9013 183.606 73.4559 181.948 74.5642 180.119C75.7 178.245 77.3288 176.337 79.2207 174.504C82.8867 170.949 87.3208 167.879 90.3782 166.088L90.6699 165.919C91.7352 165.306 92.1017 163.945 91.4887 162.88C90.8757 161.815 89.5154 161.448 88.45 162.061L88.1364 162.243C84.8446 164.17 80.1033 167.448 76.1237 171.307L76.1215 171.311Z" fill="#42BDCC"/>
<path d="M102.985 131.443C104.077 132.615 103.631 134.805 101.99 136.333C100.349 137.862 98.1328 138.151 97.041 136.978C95.9493 135.806 96.395 133.617 98.036 132.088C99.6769 130.56 101.893 130.27 102.985 131.443Z" fill="#E1FCFF"/>
<path d="M126.721 118.671C127.099 120.228 129.171 121.062 131.351 120.534C133.531 120.006 134.993 118.317 134.615 116.76C134.238 115.203 132.165 114.369 129.985 114.897C127.805 115.425 126.344 117.114 126.721 118.671Z" fill="#E1FCFF"/>
<path d="M102.575 139.018C103.79 141.275 102.944 144.09 100.687 145.305C98.4299 146.519 95.6147 145.674 94.3997 143.417C93.1846 141.161 94.0299 138.346 96.2871 137.131C98.5444 135.916 101.36 136.761 102.575 139.018Z" fill="#42BDCC"/>
<path d="M142.427 117.574C143.642 119.831 142.797 122.646 140.54 123.861C138.282 125.075 135.467 124.23 134.252 121.974C133.037 119.717 133.882 116.902 136.14 115.687C138.397 114.472 141.212 115.317 142.427 117.574Z" fill="#42BDCC"/>
<path d="M24.3686 135.343C23.7149 135.343 23.0765 135.059 22.6374 134.537L16.1166 126.791L6.73315 130.598C6.45691 130.71 6.16857 130.764 5.88352 130.764C5.22978 130.764 4.59146 130.48 4.15233 129.959C3.52171 129.209 3.44467 128.139 3.96304 127.307L9.31618 118.712L2.79534 110.965C2.16471 110.216 2.08767 109.145 2.60604 108.313C3.02536 107.64 3.75723 107.247 4.52652 107.247C4.70702 107.247 4.88971 107.269 5.0702 107.313L14.8993 109.748L20.2525 101.154C20.6718 100.481 21.4037 100.088 22.173 100.088C22.3535 100.088 22.5362 100.11 22.7166 100.154C23.6675 100.39 24.3598 101.211 24.4291 102.189L25.1511 112.288L34.9802 114.723C35.9311 114.958 36.6223 115.779 36.6927 116.758C36.762 117.735 36.1953 118.646 35.2873 119.014L25.9039 122.822L26.6258 132.921C26.6952 133.898 26.1284 134.809 25.2204 135.178C24.9442 135.29 24.6558 135.344 24.3708 135.344L24.3686 135.343Z" fill="#42BDCC"/>
<path d="M22.1729 102.349L23.0115 114.088L34.4365 116.918L23.5299 121.343L24.3685 133.081L16.7889 124.078L5.88233 128.503L12.1049 118.514L4.52533 109.51L15.9503 112.341L22.1729 102.351M22.1718 97.8257C20.6354 97.8257 19.1705 98.6113 18.3319 99.9582L13.8471 107.158L5.61269 105.118C5.2506 105.029 4.88522 104.985 4.52423 104.985C2.98674 104.985 1.52299 105.77 0.684364 107.117C-0.352367 108.781 -0.199389 110.922 1.06296 112.421L6.52506 118.91L2.04026 126.109C1.00353 127.773 1.15651 129.915 2.41885 131.413C3.2971 132.456 4.57376 133.024 5.88123 133.024C6.45242 133.024 7.02912 132.916 7.5816 132.692L15.4418 129.503L20.9039 135.992C21.7822 137.035 23.0588 137.603 24.3663 137.603C24.9375 137.603 25.5142 137.495 26.0667 137.27C27.8826 136.533 29.0184 134.711 28.8786 132.757L28.2744 124.297L36.1346 121.108C37.9506 120.371 39.0863 118.549 38.9466 116.595C38.8068 114.64 37.4245 112.998 35.5216 112.527L27.2872 110.486L26.683 102.027C26.5432 100.073 25.1609 98.4298 23.258 97.9588C22.8959 97.8697 22.5306 97.8257 22.1696 97.8257H22.1718Z" fill="white"/>
<path d="M182.546 96.7795C181.688 96.7795 180.927 96.2272 180.662 95.4107L177.921 86.9786H169.053C168.195 86.9786 167.434 86.4262 167.169 85.6097C166.904 84.7933 167.194 83.8998 167.889 83.3958L175.063 78.1845L172.323 69.7524C172.058 68.9359 172.348 68.0424 173.043 67.5384C173.389 67.2864 173.799 67.1599 174.207 67.1599C174.615 67.1599 175.025 67.2864 175.371 67.5384L182.546 72.7498L189.721 67.5384C190.067 67.2864 190.477 67.1599 190.885 67.1599C191.293 67.1599 191.703 67.2864 192.049 67.5384C192.744 68.0424 193.034 68.937 192.769 69.7524L190.029 78.1845L197.203 83.3958C197.898 83.8998 198.188 84.7944 197.923 85.6097C197.658 86.4262 196.897 86.9786 196.039 86.9786H187.171L184.43 95.4107C184.165 96.2272 183.404 96.7795 182.546 96.7795Z" fill="#42BDCC"/>
<path d="M190.885 69.1393L187.7 78.9403L196.039 84.9978H185.731L182.546 94.7987L179.361 84.9978H169.053L177.392 78.9403L174.207 69.1393L182.546 75.1968L190.885 69.1393ZM190.885 65.178C190.067 65.178 189.251 65.43 188.556 65.935L182.546 70.3013L176.536 65.935C175.841 65.4311 175.025 65.178 174.207 65.178C173.389 65.178 172.573 65.43 171.878 65.935C170.489 66.9441 169.908 68.7322 170.439 70.364L172.734 77.4283L166.724 81.7946C165.335 82.8036 164.754 84.5917 165.285 86.2236C165.815 87.8554 167.336 88.9613 169.053 88.9613H176.482L178.778 96.0256C179.308 97.6575 180.829 98.7633 182.546 98.7633C184.263 98.7633 185.784 97.6586 186.314 96.0256L188.61 88.9613H196.039C197.756 88.9613 199.277 87.8565 199.807 86.2236C200.338 84.5917 199.757 82.8036 198.368 81.7946L192.358 77.4283L194.653 70.364C195.184 68.7322 194.603 66.9441 193.214 65.935C192.519 65.4311 191.703 65.178 190.885 65.178Z" fill="white"/>
<path d="M42.9769 158.951C42.6787 158.951 42.3771 158.884 42.0965 158.744C41.3283 158.362 40.8925 157.529 41.0179 156.681L41.8852 150.808L36.5673 148.169C35.7991 147.788 35.3632 146.955 35.4887 146.106C35.6142 145.258 36.2723 144.586 37.1175 144.443L42.9714 143.452L43.8387 137.58C43.9642 136.731 44.6223 136.059 45.4675 135.916C45.5787 135.897 45.6887 135.888 45.7988 135.888C46.5263 135.888 47.2075 136.29 47.5542 136.951L50.3056 142.211L56.1595 141.221C56.2707 141.202 56.3807 141.193 56.4908 141.193C57.2182 141.193 57.8995 141.595 58.2462 142.256C58.6435 143.016 58.507 143.946 57.9061 144.559L53.7526 148.8L56.504 154.06C56.9013 154.82 56.7648 155.75 56.1639 156.363C55.782 156.752 55.2691 156.958 54.7475 156.958C54.4492 156.958 54.1477 156.891 53.867 156.751L48.5491 154.113L44.3956 158.353C44.0137 158.743 43.5008 158.949 42.9791 158.949L42.9769 158.951Z" fill="#42BDCC"/>
<path d="M45.7978 137.87L49.2161 144.405L56.4887 143.175L51.3281 148.445L54.7465 154.98L48.1398 151.701L42.9792 156.97L44.0567 149.675L37.45 146.396L44.7225 145.166L45.8 137.87M45.7989 133.909C45.5799 133.909 45.3587 133.928 45.1363 133.965C43.4437 134.251 42.1285 135.595 41.8776 137.293L41.2205 141.741L36.7864 142.492C35.0937 142.778 33.7785 144.121 33.5276 145.819C33.2767 147.517 34.1483 149.183 35.6858 149.946L39.715 151.945L39.0579 156.394C38.807 158.092 39.6786 159.758 41.2161 160.52C41.7763 160.799 42.3783 160.933 42.9759 160.933C44.0182 160.933 45.045 160.522 45.8077 159.743L48.9542 156.53L52.9834 158.53C53.5435 158.808 54.1456 158.942 54.7432 158.942C55.7854 158.942 56.8122 158.532 57.5749 157.752C58.7756 156.526 59.0508 154.665 58.2551 153.144L56.1706 149.16L59.3171 145.947C60.5178 144.721 60.793 142.86 59.9973 141.34C59.3061 140.018 57.9436 139.214 56.4876 139.214C56.2685 139.214 56.0473 139.233 55.825 139.27L51.3908 140.02L49.3064 136.036C48.6152 134.714 47.2527 133.91 45.7967 133.91L45.7989 133.909Z" fill="white"/>
<path d="M32.9948 76.8979L43.2542 88.5585C44.718 90.1859 45.3398 91.9894 45.1164 93.9712C44.8941 95.9518 43.5998 97.982 41.2358 100.061C39.7027 101.409 38.1993 102.306 36.7235 102.751C35.2487 103.197 33.8763 103.248 32.6096 102.906C31.3417 102.564 30.2522 101.893 29.3398 100.894L19.1056 89.2605C18.2285 88.2636 17.6958 87.1192 17.5087 85.8263C17.3216 84.5333 17.5472 83.181 18.1867 81.7659C18.8261 80.3519 19.9223 78.9622 21.473 77.5977C23.0248 76.2333 24.5017 75.3442 25.9049 74.9282C27.3082 74.5134 28.6046 74.487 29.7921 74.8501C30.9796 75.2143 32.0472 75.8966 32.9937 76.8979H32.9948ZM34.5642 91.9762L28.6431 85.2453C28.5782 85.1715 28.4913 85.1011 28.3823 85.0329C28.2733 84.9647 28.1171 85.0208 27.9146 85.199C27.7297 85.3619 27.6647 85.5016 27.7176 85.6172C27.7715 85.7338 27.8309 85.8296 27.8959 85.9033L33.8169 92.6342C33.8653 92.6892 33.9446 92.752 34.0535 92.8191C34.1625 92.8873 34.3088 92.84 34.4937 92.6771C34.6962 92.4989 34.7722 92.3514 34.7183 92.2337C34.6643 92.117 34.6137 92.0312 34.5653 91.9751L34.5642 91.9762ZM42.1239 70.6874L43.8694 69.1524L50.6676 76.8803L48.9221 78.4153L57.3535 87.9984L49.8741 94.5764L28.8203 70.6456L36.2998 64.0676L42.1239 70.6874Z" fill="#42BDCC"/>
<path d="M57.3359 84.3221L45.2352 59.0731L54.3853 54.6892L61.9264 70.4245C63.3901 69.7235 64.7251 68.8664 65.9302 67.8518C67.1354 66.8384 68.1083 65.8811 68.85 64.981L72.9793 69.6707L63.2383 49.3448L72.3553 44.9774L86.1784 73.8191L77.0613 78.1864L75.1959 74.2945C74.5928 74.8017 73.8158 75.3849 72.8649 76.0451C71.9129 76.7054 70.8982 77.3623 69.8196 78.0148C68.7422 78.6684 67.7054 79.267 66.7116 79.8106C65.7178 80.3553 64.8825 80.7756 64.2068 81.0716L57.337 84.3221H57.3359Z" fill="#42BDCC"/>
<path d="M102.824 48.053L101.168 38.7186L110.976 36.9789L116.545 68.3602L106.737 70.0999L104.623 58.1862L102.662 58.5339L103.222 61.6942C103.628 63.8454 103.216 65.7105 101.985 67.2896C100.753 68.8697 98.54 69.9425 95.3428 70.5092C93.1868 70.8921 91.3269 70.8976 89.7619 70.5246C88.1969 70.1527 86.9554 69.4925 86.0376 68.544C85.1197 67.5955 84.5298 66.4577 84.2701 65.1295L81.5638 49.8741C81.3316 48.5668 81.4768 47.3113 82.0007 46.1064C82.5235 44.9026 83.4567 43.8573 84.7972 42.9693C86.1388 42.0824 87.9107 41.4431 90.1152 41.0524C92.2227 40.6783 93.9891 40.6783 95.4166 41.0491C96.844 41.4211 97.9765 42.0692 98.8151 42.9935C99.6537 43.9189 100.217 45.0556 100.507 46.4024L100.861 48.4007L102.822 48.053H102.824ZM93.8395 60.1361L92.2734 51.31C92.2558 51.2132 92.2183 51.1076 92.1611 50.9931C92.1028 50.8787 91.9531 50.8424 91.711 50.8853C91.4688 50.9282 91.3346 51.0151 91.3071 51.1439C91.2796 51.2737 91.2752 51.3871 91.2928 51.4839L92.8589 60.3099C92.8721 60.3826 92.9128 60.475 92.9832 60.5872C93.0526 60.7006 93.2088 60.7347 93.451 60.6918C93.6931 60.6488 93.8219 60.5641 93.8362 60.4365C93.8516 60.3088 93.8516 60.2087 93.8395 60.1361Z" fill="#42BDCC"/>
<path d="M117.066 53.8871L148.208 55.9888L147.582 65.2638L143.607 64.9953L143.247 70.3321L133.308 69.6609L133.668 64.3241L130.355 64.1007L129.995 69.4375L120.056 68.7663L120.416 63.4295L116.441 63.161L117.067 53.886L117.066 53.8871ZM139.44 54.3988L125.967 53.4899C124.617 53.3986 123.327 52.9793 122.095 52.23C120.864 51.4817 119.884 50.4672 119.158 49.1853C118.43 47.9044 118.126 46.4046 118.241 44.687C118.347 43.1167 118.669 41.8139 119.207 40.7774C119.746 39.7408 120.435 38.9321 121.275 38.3478C122.115 37.7635 123.036 37.364 124.038 37.1473C125.038 36.9316 126.054 36.8579 127.085 36.9272L140.558 37.8361C142.031 37.9351 143.376 38.285 144.592 38.8847C145.809 39.4844 146.763 40.412 147.455 41.6665C148.147 42.9209 148.421 44.6033 148.279 46.7138C148.163 48.4315 147.664 49.8829 146.783 51.068C145.902 52.2531 144.813 53.129 143.518 53.6946C142.222 54.2601 140.862 54.4956 139.439 54.3988H139.44ZM138.155 45.5122L128.511 44.8608C128.314 44.8476 128.153 44.8553 128.029 44.8839C127.903 44.9125 127.833 45.0501 127.816 45.2944C127.8 45.5398 127.85 45.6916 127.97 45.7488C128.089 45.806 128.248 45.8413 128.443 45.8545L138.088 46.5059C138.284 46.5191 138.445 46.5059 138.571 46.4641C138.696 46.4233 138.768 46.2803 138.784 46.0349C138.801 45.7895 138.749 45.6443 138.629 45.5992C138.508 45.5541 138.351 45.5254 138.155 45.5122Z" fill="#42BDCC"/>
<path d="M159.221 66.5754L158.607 69.4617C158.412 70.3761 157.872 71.0781 156.989 71.5689C156.105 72.0596 154.845 72.1312 153.208 71.7834C151.596 71.4401 150.477 70.8503 149.85 70.0141C149.223 69.1767 149.007 68.3019 149.202 67.3875L149.809 64.5375C150.003 63.6231 150.556 62.9112 151.471 62.4017C152.383 61.8923 153.646 61.8086 155.259 62.1509C156.894 62.4986 158.017 63.0763 158.624 63.885C159.232 64.6927 159.431 65.5906 159.221 66.5765V66.5754ZM160.119 62.3533L150.735 60.3584C150.844 59.7278 150.98 58.7947 151.141 57.5601C151.303 56.3255 151.491 54.938 151.706 53.3996C151.92 51.8613 152.152 50.2955 152.404 48.7022C152.655 47.1089 152.901 45.6212 153.146 44.2402C153.389 42.8592 153.614 41.738 153.824 40.8775L153.868 40.8489L165.199 43.2587L165.155 43.2873C165.018 44.1632 164.781 45.2822 164.442 46.6434C164.102 48.0046 163.722 49.4636 163.303 51.0218C162.883 52.5799 162.463 54.1116 162.041 55.6191C161.62 57.1266 161.239 58.4723 160.9 59.6563C160.56 60.8414 160.299 61.7415 160.119 62.3566V62.3533Z" fill="#42BDCC"/>
</g>
<defs>
<clipPath id="clip0_128_12000">
<rect width="200" height="200" fill="white"/>
</clipPath>
</defs>
</svg>
