<svg width="24" height="36" viewBox="0 0 24 36" fill="none" xmlns="http://www.w3.org/2000/svg">
<path d="M12 0.761719C18.6274 0.761719 24 6.1343 24 12.7617C24 17.8694 16.8723 29.3595 13.6035 34.3604C12.8381 35.5314 11.1619 35.5314 10.3965 34.3604C7.12768 29.3595 0 17.8694 0 12.7617C0 6.1343 5.37258 0.761719 12 0.761719ZM12 7.76172C9.23858 7.76172 7 10.0003 7 12.7617C7 15.5231 9.23858 17.7617 12 17.7617C14.7614 17.7617 17 15.5231 17 12.7617C17 10.0003 14.7614 7.76172 12 7.76172Z" fill="#42BDCC"/>
</svg>
