<svg width="200" height="200" viewBox="0 0 200 200" fill="none" xmlns="http://www.w3.org/2000/svg">
<g clip-path="url(#clip0_128_12129)">
<path d="M97.798 190.232C147.807 190.232 188.348 149.691 188.348 99.6819C188.348 49.6726 147.807 9.13208 97.798 9.13208C47.7887 9.13208 7.24811 49.6726 7.24811 99.6819C7.24811 149.691 47.7887 190.232 97.798 190.232Z" fill="white"/>
<path d="M97.7979 193.364C85.1528 193.364 72.8836 190.886 61.3322 186C50.1768 181.281 40.1582 174.528 31.5552 165.925C22.9522 157.322 16.1983 147.303 11.4793 136.148C6.59336 124.596 4.11609 112.327 4.11609 99.6807C4.11609 87.0345 6.59336 74.7664 11.4793 63.2151C16.1983 52.0585 22.9522 42.041 31.5552 33.438C40.1582 24.835 50.1757 18.0811 61.3322 13.3621C72.8825 8.47727 85.1517 6 97.7979 6C110.444 6 122.712 8.47727 134.265 13.3633C145.42 18.0822 155.439 24.8361 164.042 33.4391C172.645 42.0421 179.399 52.0596 184.118 63.2162C189.004 74.7676 191.481 87.0367 191.481 99.6818C191.481 112.327 189.004 124.596 184.118 136.149C179.399 147.304 172.645 157.323 164.042 165.926C155.439 174.529 145.42 181.283 134.265 186.002C122.713 190.888 110.444 193.365 97.7979 193.365V193.364ZM97.7979 12.2651C85.9955 12.2651 74.5469 14.5765 63.7719 19.134C53.3629 23.5367 44.0135 29.8404 35.9844 37.8695C27.9554 45.8985 21.6516 55.248 17.249 65.6569C12.6914 76.432 10.3812 87.8805 10.3812 99.6829C10.3812 111.485 12.6925 122.934 17.249 133.709C21.6516 144.118 27.9554 153.467 35.9844 161.496C44.0135 169.525 53.3629 175.829 63.7719 180.232C74.5469 184.789 85.9944 187.101 97.7979 187.101C109.601 187.101 121.049 184.791 131.824 180.232C142.233 175.829 151.582 169.525 159.611 161.496C167.64 153.467 173.944 144.118 178.347 133.709C182.904 122.934 185.216 111.485 185.216 99.6829C185.216 87.8805 182.906 76.432 178.347 65.6569C173.944 55.248 167.64 45.8985 159.611 37.8695C151.582 29.8404 142.233 23.5367 131.824 19.134C121.049 14.5765 109.6 12.2651 97.7979 12.2651Z" fill="#863AFF"/>
<path d="M29.298 73.6947L49.2622 93.368L36.147 106.678L16.1829 87.0046L29.298 73.6947ZM42.3878 71.1345L44.0267 69.4712L51.3944 76.7316L49.7554 78.3949L58.8926 87.3983L51.8667 94.5282L29.0503 72.0447L36.0762 64.9148L42.3878 71.1345ZM29.8632 86.4317L29.1609 87.145L35.8152 93.7031L36.5175 92.9898L29.8632 86.4317Z" fill="#863AFF"/>
<path d="M52.6884 74.9712C53.603 73.4826 54.0255 71.9255 53.9536 70.3031C53.8817 68.6796 53.4117 66.8072 52.5424 64.685L49.0643 66.6679L44.7678 59.131L60.2927 50.2803L64.5893 57.8172L61.7227 59.4517C62.1629 60.4238 62.5743 61.407 62.9547 62.3979C63.3351 63.391 63.6846 64.3654 64.0031 65.3209C64.7916 64.957 65.6465 64.6474 66.5678 64.3919C67.489 64.1375 68.3748 63.9805 69.2242 63.923L60.7041 48.9786L69.4 44.0208L73.7884 51.7191L75.8177 50.5623L80.9404 59.5479L78.911 60.7047L85.2645 71.8492L76.5687 76.807L73.2265 70.9456L74.4807 76.5892L74.4486 76.608C73.7707 76.567 72.9667 76.6279 72.0344 76.7893C71.1021 76.9508 70.1764 77.1731 69.2563 77.4562C68.3361 77.7393 67.5377 78.06 66.8597 78.4172L65.3877 74.2634C65.2882 76.0848 64.8956 77.8167 64.2099 79.459C63.5254 81.1024 62.4161 82.601 60.8855 83.9579L52.6906 74.9734L52.6884 74.9712Z" fill="#863AFF"/>
<path d="M108.584 52.6623L109.109 54.7469L114.286 53.4419L116.569 62.5017L86.1548 70.1669L83.8711 61.1071L89.0479 59.8021L88.5038 57.6456C87.0285 57.3547 85.6627 56.5905 84.4086 55.3519C83.1533 54.1132 82.2387 52.3559 81.6648 50.0788C81.1881 48.1855 81.1372 46.4459 81.5155 44.8588C81.8926 43.273 82.5771 41.9403 83.567 40.862C84.5568 39.7849 85.7224 39.076 87.065 38.7376L100.87 35.2583C102.308 34.8956 103.712 34.9564 105.084 35.4386C106.454 35.9219 107.669 36.7745 108.73 37.9988C109.79 39.2231 110.559 40.7813 111.036 42.6746C111.622 44.9993 111.655 47.0055 111.138 48.6898C110.619 50.3752 109.767 51.699 108.583 52.66L108.584 52.6623ZM101.043 45.0424L91.6236 47.4157C91.4312 47.4644 91.2808 47.5208 91.1702 47.5872C91.0596 47.6535 91.0375 47.8183 91.1038 48.0815C91.1647 48.3215 91.2587 48.4443 91.3881 48.4498C91.5163 48.4553 91.6767 48.4343 91.8691 48.3856L101.288 46.0123C101.48 45.9637 101.631 45.9073 101.742 45.8409C101.852 45.7746 101.878 45.6219 101.817 45.382C101.751 45.1187 101.652 44.9838 101.524 44.9783C101.394 44.9728 101.234 44.9938 101.043 45.0424ZM100.011 55.5111L97.422 56.1636L97.7847 57.6013L100.374 56.9488L100.011 55.5111Z" fill="#863AFF"/>
<path d="M126.072 56.4524L126.308 59.4085C126.383 60.3452 126.064 61.1758 125.354 61.9024C124.643 62.629 123.451 63.0592 121.776 63.193C120.124 63.3246 118.877 63.0769 118.034 62.4509C117.19 61.8238 116.731 61.0431 116.656 60.1063L116.423 57.1867C116.348 56.2511 116.677 55.4062 117.41 54.653C118.144 53.901 119.336 53.4575 120.987 53.3259C122.662 53.1921 123.909 53.4277 124.725 54.0315C125.541 54.6353 125.991 55.4427 126.072 56.4535V56.4524Z" fill="#863AFF"/>
<path d="M137.016 56.3771L137.024 59.3432C137.026 60.2832 136.646 61.0872 135.882 61.7563C135.117 62.4254 133.894 62.7627 132.214 62.7671C130.558 62.7715 129.333 62.4287 128.542 61.7397C127.749 61.0507 127.351 60.2356 127.348 59.2956L127.341 56.3671C127.338 55.4282 127.731 54.6109 128.521 53.9164C129.309 53.223 130.532 52.8724 132.188 52.868C133.869 52.8635 135.093 53.1931 135.861 53.8589C136.628 54.5246 137.014 55.364 137.017 56.3771H137.016Z" fill="#863AFF"/>
<path d="M147.943 57.0881L147.739 60.0476C147.675 60.9854 147.237 61.7595 146.428 62.3733C145.617 62.986 144.374 63.2359 142.697 63.1198C141.045 63.0059 139.849 62.5768 139.107 61.8325C138.364 61.0882 138.026 60.2477 138.09 59.3099L138.291 56.3881C138.356 55.4513 138.806 54.665 139.643 54.028C140.479 53.3921 141.723 53.13 143.375 53.2439C145.052 53.3589 146.25 53.7759 146.969 54.4947C147.686 55.2136 148.011 56.0784 147.942 57.0892L147.943 57.0881Z" fill="#863AFF"/>
<path d="M168.092 69.9856C164.249 60.9004 158.749 52.742 151.743 45.7371C144.737 38.7321 136.578 33.2313 127.494 29.3882C118.087 25.4091 108.096 23.3918 97.798 23.3918C87.4996 23.3918 77.5087 25.4091 68.1017 29.3882C59.0165 33.2313 50.8581 38.731 43.8532 45.7371C40.1273 49.4629 36.8272 53.515 33.9761 57.8602C35.0434 58.6941 35.9911 59.6795 36.8659 60.7246C39.6672 56.3495 42.943 52.2786 46.6689 48.5528C53.3099 41.9117 61.0437 36.6972 69.6533 33.0554C78.566 29.2853 88.036 27.3743 97.798 27.3743C107.56 27.3743 117.03 29.2853 125.943 33.0554C134.552 36.6972 142.286 41.9106 148.927 48.5528C155.568 55.1938 160.783 62.9276 164.424 71.5372C168.195 80.4499 170.106 89.9199 170.106 99.6819C170.106 109.444 168.195 118.914 164.424 127.827C160.783 136.436 155.568 144.17 148.927 150.811C142.286 157.452 134.553 162.667 125.943 166.308C117.03 170.079 107.56 171.99 97.798 171.99C88.036 171.99 78.566 170.079 69.6533 166.308C61.0437 162.667 53.3099 157.452 46.6689 150.811C40.0278 144.17 34.8133 136.437 31.1715 127.827C27.8405 119.95 25.9615 111.64 25.5689 103.077C24.1356 101.654 22.7709 100.159 21.5168 98.5793C21.5113 98.9465 21.5079 99.3136 21.5079 99.6819C21.5079 109.98 23.5251 119.971 27.5043 129.378C31.3474 138.463 36.8471 146.622 43.8532 153.627C50.8592 160.632 59.0176 166.133 68.1017 169.976C77.5087 173.955 87.4996 175.972 97.798 175.972C108.096 175.972 118.087 173.955 127.494 169.976C136.579 166.133 144.738 160.633 151.743 153.627C158.748 146.621 164.249 138.462 168.092 129.378C172.071 119.971 174.088 109.98 174.088 99.6819C174.088 89.3835 172.071 79.3926 168.092 69.9856Z" fill="#863AFF"/>
<path d="M24.4873 136.81C23.8303 136.81 23.1889 136.525 22.7476 136L16.195 128.215L6.76591 132.041C6.48833 132.154 6.19857 132.208 5.91214 132.208C5.25522 132.208 4.61378 131.923 4.17252 131.399C3.53882 130.646 3.46141 129.569 3.9823 128.733L9.36152 120.095L2.80891 112.309C2.17522 111.556 2.0978 110.48 2.61869 109.644C3.04005 108.967 3.77549 108.572 4.54853 108.572C4.7299 108.572 4.91349 108.594 5.09486 108.639L14.9719 111.086L20.3511 102.449C20.7725 101.772 21.5079 101.377 22.2809 101.377C22.4623 101.377 22.6459 101.399 22.8273 101.444C23.7828 101.68 24.4784 102.505 24.5481 103.488L25.2736 113.639L35.1506 116.086C36.1061 116.323 36.8006 117.148 36.8714 118.131C36.9411 119.113 36.3715 120.029 35.4592 120.399L26.03 124.226L26.7555 134.376C26.8252 135.358 26.2556 136.274 25.3433 136.644C25.0657 136.757 24.7759 136.811 24.4895 136.811L24.4873 136.81Z" fill="#863AFF"/>
<path d="M22.2809 103.65L23.1236 115.448L34.6042 118.292L23.6445 122.739L24.4872 134.537L16.8707 125.489L5.91098 129.936L12.1639 119.896L4.54738 110.847L16.028 113.692L22.2809 103.652M22.2798 99.1035C20.7359 99.1035 19.2639 99.8931 18.4212 101.247L13.9146 108.483L5.64003 106.432C5.27618 106.343 4.90902 106.299 4.54627 106.299C3.0024 106.299 1.53041 107.088 0.687698 108.442C-0.354084 110.114 -0.20036 112.266 1.06814 113.773L6.55685 120.294L2.0502 127.53C1.00842 129.202 1.16214 131.355 2.43064 132.861C3.31317 133.909 4.59604 134.48 5.90988 134.48C6.48385 134.48 7.06336 134.371 7.61853 134.146L15.5171 130.941L21.0058 137.463C21.8883 138.511 23.1712 139.082 24.485 139.082C25.059 139.082 25.6385 138.973 26.1937 138.748C28.0184 138.007 29.1598 136.175 29.0193 134.211L28.4121 125.709L36.3107 122.504C38.1354 121.763 39.2768 119.931 39.1363 117.967C38.9959 116.003 37.6068 114.352 35.6947 113.879L27.4201 111.828L26.813 103.326C26.6725 101.362 25.2835 99.7107 23.3713 99.2373C23.0075 99.1478 22.6403 99.1035 22.2776 99.1035H22.2798Z" fill="white"/>
<path d="M182.461 96.3496C181.598 96.3496 180.834 95.7945 180.568 94.9739L177.814 86.4991H168.902C168.04 86.4991 167.276 85.944 167.009 85.1234C166.742 84.3028 167.034 83.4048 167.732 82.8983L174.942 77.6606L172.188 69.1859C171.922 68.3653 172.213 67.4673 172.911 66.9608C173.26 66.7075 173.671 66.5803 174.081 66.5803C174.492 66.5803 174.903 66.7075 175.251 66.9608L182.461 72.1984L189.671 66.9608C190.019 66.7075 190.43 66.5803 190.841 66.5803C191.251 66.5803 191.662 66.7075 192.011 66.9608C192.709 67.4673 193 68.3664 192.734 69.1859L189.98 77.6606L197.19 82.8983C197.888 83.4048 198.18 84.3039 197.913 85.1234C197.646 85.944 196.882 86.4991 196.02 86.4991H187.108L184.354 94.9739C184.088 95.7945 183.324 96.3496 182.461 96.3496Z" fill="#863AFF"/>
<path d="M190.841 68.57L187.64 78.4204L196.02 84.5086H185.662L182.461 94.359L179.26 84.5086H168.902L177.282 78.4204L174.081 68.57L182.461 74.6581L190.841 68.57ZM190.841 64.5886C190.019 64.5886 189.198 64.8419 188.5 65.3495L182.461 69.7378L176.422 65.3495C175.724 64.843 174.903 64.5886 174.081 64.5886C173.26 64.5886 172.439 64.8419 171.741 65.3495C170.346 66.3636 169.762 68.1608 170.295 69.8009L172.602 76.9009L166.562 81.2892C165.167 82.3033 164.583 84.1005 165.116 85.7406C165.649 87.3806 167.177 88.4921 168.902 88.4921H176.367L178.674 95.5921C179.207 97.2322 180.736 98.3437 182.461 98.3437C184.186 98.3437 185.715 97.2333 186.248 95.5921L188.555 88.4921H196.02C197.745 88.4921 199.273 87.3818 199.806 85.7406C200.339 84.0994 199.755 82.3033 198.36 81.2892L192.32 76.9009L194.627 69.8009C195.16 68.1608 194.576 66.3636 193.181 65.3495C192.483 64.843 191.662 64.5886 190.841 64.5886Z" fill="white"/>
<path d="M42.2131 158.837C41.9134 158.837 41.6103 158.769 41.3283 158.629C40.5564 158.245 40.1184 157.408 40.2445 156.555L41.116 150.653L35.7721 148.001C35.0002 147.617 34.5623 146.78 34.6883 145.927C34.8144 145.075 35.4758 144.399 36.3251 144.255L42.2075 143.26L43.079 137.358C43.2051 136.505 43.8664 135.829 44.7158 135.685C44.8275 135.667 44.9381 135.658 45.0486 135.658C45.7797 135.658 46.4642 136.061 46.8126 136.726L49.5774 142.012L55.4598 141.017C55.5715 140.998 55.6821 140.989 55.7927 140.989C56.5237 140.989 57.2083 141.393 57.5567 142.058C57.9559 142.822 57.8188 143.756 57.2149 144.372L53.0412 148.635L55.806 153.921C56.2052 154.685 56.0681 155.62 55.4643 156.236C55.0805 156.627 54.5651 156.834 54.0409 156.834C53.7412 156.834 53.4382 156.767 53.1562 156.626L47.8124 153.974L43.6386 158.236C43.2548 158.628 42.7395 158.835 42.2153 158.835L42.2131 158.837Z" fill="#863AFF"/>
<path d="M45.0465 137.648L48.4815 144.216L55.7894 142.98L50.6038 148.276L54.0388 154.844L47.3999 151.549L42.2142 156.845L43.2969 149.513L36.658 146.217L43.966 144.981L45.0487 137.648M45.0476 133.667C44.8275 133.667 44.6052 133.686 44.3818 133.723C42.6809 134.011 41.3593 135.361 41.1072 137.068L40.4469 141.539L35.9912 142.293C34.2903 142.581 32.9687 143.931 32.7165 145.638C32.4644 147.344 33.3403 149.018 34.8852 149.785L38.934 151.794L38.2738 156.265C38.0216 157.972 38.8975 159.646 40.4425 160.413C41.0054 160.692 41.6104 160.827 42.2109 160.827C43.2582 160.827 44.29 160.415 45.0564 159.631L48.2183 156.401L52.2671 158.411C52.83 158.691 53.4349 158.826 54.0354 158.826C55.0828 158.826 56.1146 158.413 56.881 157.629C58.0876 156.397 58.364 154.527 57.5645 152.999L55.4698 148.994L58.6317 145.765C59.8382 144.533 60.1147 142.663 59.3151 141.134C58.6206 139.806 57.2515 138.998 55.7883 138.998C55.5683 138.998 55.346 139.016 55.1226 139.054L50.6668 139.808L48.5722 135.804C47.8777 134.475 46.5085 133.667 45.0454 133.667H45.0476Z" fill="white"/>
<path d="M103.795 189.763C81.8495 186.636 79.6266 165.159 81.2578 154.811C78.6644 156.217 72.5564 157.96 68.8748 153.695C65.1931 149.431 72.6139 143.261 76.7832 140.708C77.3406 134.516 82.4544 119.08 98.4472 106.866C114.44 94.6521 132.913 93.6015 140.152 94.6035C142.545 93.5849 148.381 91.7988 152.578 92.7953C156.775 93.7917 153.439 100.606 151.247 103.889C166.985 107.627 179.973 123.49 175.119 143.656C170.264 163.822 131.229 193.67 103.797 189.763H103.795Z" fill="white"/>
<path d="M108.898 193.089C107.001 193.089 105.16 192.962 103.376 192.708C95.1172 191.531 88.673 187.882 84.2216 181.86C81.2755 177.873 79.3191 172.997 78.4078 167.367C77.9024 164.247 77.8062 161.415 77.8825 159.093C77.1614 159.228 76.3873 159.324 75.5755 159.352C71.9237 159.474 68.8272 158.192 66.623 155.638C65.2318 154.026 64.6689 152.066 64.9951 149.972C65.7538 145.111 71.2889 140.808 74.0051 138.963C74.6642 134.751 76.5565 129.515 79.214 124.624C83.4132 116.896 89.2768 110.125 96.6423 104.5C104.019 98.8667 112.531 94.9539 121.941 92.8726C130.648 90.9472 137.097 91.2767 139.75 91.5576C142.976 90.3179 148.756 88.8293 153.267 89.8999C155.109 90.3378 156.484 91.4968 157.14 93.1646C157.857 94.9915 157.675 97.2609 156.581 100.101C156.31 100.805 156.005 101.483 155.695 102.113C163.26 104.833 169.81 110.105 174.029 116.976C176.404 120.843 177.97 125.079 178.685 129.567C179.447 134.351 179.221 139.326 178.011 144.351C176.728 149.682 173.281 155.733 168.044 161.851C163.07 167.662 156.696 173.311 149.611 178.187C142.211 183.28 134.317 187.316 126.782 189.861C120.421 192.009 114.429 193.088 108.898 193.088V193.089ZM81.2578 151.836C81.8616 151.836 82.4632 152.02 82.9753 152.382C83.8998 153.036 84.3732 154.157 84.1962 155.276C83.2042 161.564 83.8688 171.375 89.0059 178.325C92.4741 183.018 97.5901 185.875 104.213 186.819C110.272 187.681 117.225 186.81 124.877 184.225C131.897 181.855 139.282 178.073 146.235 173.288C159.843 163.923 170.044 152.019 172.225 142.961C174.21 134.714 173.079 126.807 168.957 120.093C164.873 113.443 158.167 108.592 150.558 106.785C149.611 106.56 148.833 105.885 148.477 104.978C148.121 104.071 148.23 103.047 148.772 102.238C150.638 99.444 151.607 96.7312 151.624 95.6341C148.485 95.0247 143.677 96.3386 141.317 97.3427C140.822 97.554 140.278 97.6259 139.745 97.5518C136.355 97.0829 130.236 97.1337 123.225 98.6853C114.787 100.552 106.843 104.199 100.253 109.231C93.6519 114.273 88.1853 120.578 84.4417 127.467C81.3684 133.124 80.0014 138.155 79.7471 140.976C79.663 141.914 79.1399 142.755 78.337 143.246C74.4497 145.625 71.1717 148.983 70.8742 150.891C70.8178 151.25 70.882 151.468 71.1275 151.751C72.1427 152.927 73.5329 153.467 75.3731 153.405C77.1316 153.346 78.8789 152.715 79.8411 152.194C80.2845 151.954 80.7723 151.835 81.2578 151.835V151.836Z" fill="#583F2B"/>
<path d="M112.868 143.901C100.594 170.769 114.753 183.272 123.368 186.165C135.851 183.11 162.123 172.433 167.347 154.168C173.878 131.335 146.188 129.062 132.258 129.795C121.113 130.382 114.688 139.444 112.868 143.902V143.901Z" fill="#EFE3FF"/>
<path d="M108.898 193.089C107.001 193.089 105.16 192.962 103.376 192.708C95.1172 191.531 88.673 187.882 84.2216 181.86C81.2755 177.873 79.3191 172.997 78.4078 167.367C77.9024 164.247 77.8062 161.415 77.8825 159.093C77.1614 159.228 76.3873 159.324 75.5755 159.352C71.9237 159.474 68.8272 158.192 66.623 155.638C65.2318 154.026 64.6689 152.066 64.9951 149.972C65.7538 145.111 71.2889 140.808 74.0051 138.963C74.6642 134.751 76.5565 129.515 79.214 124.624C83.4132 116.896 89.2768 110.125 96.6423 104.5C104.019 98.8667 112.531 94.9539 121.941 92.8726C130.648 90.9472 137.097 91.2767 139.75 91.5576C142.976 90.3179 148.756 88.8293 153.267 89.8999C155.109 90.3378 156.484 91.4968 157.14 93.1646C157.857 94.9915 157.675 97.2609 156.581 100.101C156.31 100.805 156.005 101.483 155.695 102.113C163.26 104.833 169.81 110.105 174.029 116.976C176.404 120.843 177.97 125.079 178.685 129.567C179.447 134.351 179.221 139.326 178.011 144.351C176.728 149.682 173.281 155.733 168.044 161.851C163.07 167.662 156.696 173.311 149.611 178.187C142.211 183.28 134.317 187.316 126.782 189.861C120.421 192.009 114.429 193.088 108.898 193.088V193.089ZM81.2578 151.836C81.8616 151.836 82.4632 152.02 82.9753 152.382C83.8998 153.036 84.3732 154.157 84.1962 155.276C83.2042 161.564 83.8688 171.375 89.0059 178.325C92.4741 183.018 97.5901 185.875 104.213 186.819C110.272 187.681 117.225 186.81 124.877 184.225C131.897 181.855 139.282 178.073 146.235 173.288C159.843 163.923 170.044 152.019 172.225 142.961C174.21 134.714 173.079 126.807 168.957 120.093C164.873 113.443 158.167 108.592 150.558 106.785C149.611 106.56 148.833 105.885 148.477 104.978C148.121 104.071 148.23 103.047 148.772 102.238C150.638 99.444 151.607 96.7312 151.624 95.6341C148.485 95.0247 143.677 96.3386 141.317 97.3427C140.822 97.554 140.278 97.6259 139.745 97.5518C136.355 97.0829 130.236 97.1337 123.225 98.6853C114.787 100.552 106.843 104.199 100.253 109.231C93.6519 114.273 88.1853 120.578 84.4417 127.467C81.3684 133.124 80.0014 138.155 79.7471 140.976C79.663 141.914 79.1399 142.755 78.337 143.246C74.4497 145.625 71.1717 148.983 70.8742 150.891C70.8178 151.25 70.882 151.468 71.1275 151.751C72.1427 152.927 73.5329 153.467 75.3731 153.405C77.1316 153.346 78.8789 152.715 79.8411 152.194C80.2845 151.954 80.7723 151.835 81.2578 151.835V151.836Z" fill="#863AFF"/>
<path d="M115.405 137.962C111.485 143.708 119.763 141.301 124.392 139.379C128.777 135.465 131.2 130.652 129.678 129.746C128.157 128.841 120.306 130.781 115.405 137.961V137.962Z" fill="#863AFF"/>
<path d="M126.808 136.834L121.996 140.335L125.781 145.537L130.593 142.036L126.808 136.834Z" fill="#863AFF"/>
<path d="M153.394 124.758C152.995 124.758 152.592 124.638 152.243 124.388C151.351 123.751 151.145 122.513 151.782 121.621C152.865 120.103 156.822 114.793 162.228 110.212C167.713 105.564 172.615 103.455 176.798 103.944C177.886 104.071 178.664 105.057 178.537 106.145C178.41 107.233 177.424 108.012 176.336 107.884C173.333 107.534 169.341 109.385 164.792 113.239C160.774 116.643 157.104 120.992 155.009 123.926C154.622 124.468 154.012 124.758 153.393 124.758H153.394Z" fill="#863AFF"/>
<path d="M157.561 127.499C156.929 127.499 156.307 127.197 155.923 126.636C155.304 125.733 155.535 124.498 156.44 123.879C157.979 122.825 163.519 119.196 170.168 116.748C176.915 114.264 182.243 113.966 186.003 115.86C186.982 116.354 187.375 117.546 186.883 118.525C186.389 119.503 185.197 119.897 184.218 119.404C181.518 118.043 177.133 118.412 171.538 120.471C166.597 122.289 161.656 125.115 158.681 127.152C158.339 127.386 157.948 127.499 157.562 127.499H157.561Z" fill="#863AFF"/>
<path d="M71.2967 183.047C71.1684 183.047 71.0379 183.034 70.9074 183.008C69.8325 182.794 69.1357 181.749 69.3492 180.675C70.1709 176.546 73.6855 172.531 79.7969 168.741C85.8186 165.008 92.0881 162.877 93.8664 162.313C94.9104 161.982 96.0263 162.559 96.357 163.603C96.6888 164.647 96.1104 165.762 95.0664 166.094C91.6291 167.184 86.3627 169.339 81.8871 172.113C76.8197 175.255 73.8293 178.483 73.2398 181.45C73.0518 182.393 72.2235 183.047 71.2967 183.047Z" fill="#863AFF"/>
<path d="M79.8124 194.779C78.8513 194.779 78.0064 194.079 77.8549 193.099C77.209 188.939 79.1333 183.961 83.5725 178.305C87.9475 172.731 93.1056 168.579 94.582 167.439C95.449 166.768 96.6943 166.929 97.3645 167.796C98.0336 168.663 97.8743 169.908 97.0073 170.578C94.1529 172.782 89.946 176.612 86.6945 180.755C83.0129 185.445 81.3131 189.504 81.7765 192.492C81.9446 193.575 81.2025 194.589 80.1209 194.756C80.0181 194.771 79.9152 194.779 79.8146 194.779H79.8124Z" fill="#863AFF"/>
<path d="M104.449 139.675C105.881 137.925 106.028 135.678 104.778 134.655C103.528 133.633 101.354 134.223 99.9222 135.973C98.4906 137.723 98.3435 139.971 99.5935 140.993C100.844 142.016 103.017 141.426 104.449 139.675Z" fill="#EFE3FF"/>
<path d="M131.623 119.921C133.728 119.098 134.959 117.211 134.37 115.707C133.782 114.203 131.598 113.651 129.492 114.475C127.387 115.298 126.156 117.185 126.745 118.689C127.333 120.193 129.517 120.745 131.623 119.921Z" fill="#EFE3FF"/>
<path d="M97.6232 150.307C97.4418 150.307 97.2572 150.281 97.0747 150.229C96.0252 149.926 95.4202 148.83 95.7221 147.781C96.149 146.299 97.1333 144.691 98.6573 142.98C97.8057 143.345 96.7871 143.07 96.2452 142.274C95.6303 141.372 95.8637 140.141 96.7661 139.526C98.0468 138.654 104.635 134.392 108.598 136.17C109.264 136.468 109.711 137.11 109.762 137.837C109.813 138.565 109.458 139.262 108.84 139.65C107.443 140.526 105.273 142.085 103.37 143.837C101.268 145.77 99.9025 147.56 99.5232 148.877C99.2733 149.743 98.4825 150.307 97.6243 150.307H97.6232Z" fill="#863AFF"/>
<path d="M129.585 124.817C129.437 124.817 129.29 124.801 129.143 124.768C128.432 124.605 127.868 124.064 127.676 123.36C126.533 119.169 131.764 113.32 132.825 112.191C133.573 111.395 134.823 111.355 135.621 112.103C136.322 112.761 136.437 113.81 135.944 114.595C137.87 113.356 139.611 112.632 141.141 112.44C142.225 112.304 143.214 113.071 143.35 114.155C143.486 115.239 142.719 116.228 141.635 116.364C140.276 116.535 138.295 117.607 136.06 119.383C134.035 120.991 132.158 122.894 131.076 124.138C130.696 124.575 130.15 124.819 129.585 124.819V124.817Z" fill="#863AFF"/>
<path d="M121.419 148.734C125.844 141.938 131.78 141.214 134.598 140.657C139.618 139.666 149.958 142.325 146.929 146.855C143.9 151.386 140.987 151.064 136.087 153.398C131.188 155.73 125.804 162.847 122.134 162.442C118.464 162.037 115.889 157.229 121.419 148.735V148.734Z" fill="#EFE3FF"/>
<path d="M122.441 164.831C122.252 164.831 122.062 164.821 121.873 164.8C119.544 164.542 117.628 163.169 116.616 161.03C115.822 159.351 115.641 157.267 116.092 155.005C116.557 152.672 117.68 150.127 119.431 147.439C124.136 140.214 130.529 139.011 133.601 138.432C133.79 138.397 133.97 138.363 134.138 138.33C138.369 137.494 146.462 138.772 149.018 142.603C150.164 144.32 150.12 146.351 148.902 148.175C146.308 152.053 143.57 153.047 140.67 154.1C139.559 154.504 138.409 154.921 137.108 155.54C135.336 156.384 133.323 158.096 131.375 159.75C128.306 162.358 125.397 164.83 122.444 164.831H122.441ZM136.962 142.825C136.255 142.825 135.604 142.877 135.057 142.986C134.876 143.021 134.683 143.057 134.479 143.096C131.685 143.623 127.007 144.503 123.408 150.029C119.783 155.595 120.577 158.304 120.906 159C121.285 159.801 121.924 160.031 122.394 160.083C122.49 160.094 123.043 160.102 124.414 159.205C125.591 158.436 126.906 157.318 128.299 156.135C130.479 154.283 132.734 152.366 135.067 151.256C136.574 150.538 137.89 150.06 139.05 149.639C141.743 148.661 143.227 148.123 144.956 145.537C145.046 145.402 145.081 145.316 145.094 145.275C144.931 144.939 143.862 144.072 141.49 143.432C140.021 143.036 138.381 142.825 136.962 142.825Z" fill="#863AFF"/>
<path d="M169.109 84.2509C169.946 83.7455 170.632 83.114 171.153 82.3531C171.675 81.5923 171.992 80.8026 172.083 79.9876C172.175 79.1725 172.032 78.4426 171.642 77.7956C171.251 77.1487 170.667 76.6753 169.9 76.369C169.151 76.0671 168.278 75.9664 167.365 76.0759C166.441 76.1876 165.566 76.4873 164.73 76.9927C164.184 77.3223 163.609 77.8299 163.001 78.5288C162.393 79.2278 161.869 79.9433 161.438 80.6677C161.104 81.287 160.749 81.9948 160.383 82.7856C160.017 83.5763 159.503 84.8835 159.385 85.1821L161.096 85.3646C161.902 85.4663 162.781 85.5061 163.739 85.4685C164.697 85.432 165.68 85.3126 166.684 85.1058C167.696 84.9122 168.499 84.6181 169.108 84.2509H169.109Z" fill="#863AFF"/>
<path d="M155.777 80.4144C156.304 79.5915 156.639 78.7201 156.769 77.8077C156.9 76.8953 156.834 76.046 156.556 75.2751C156.277 74.5043 155.826 73.9126 155.189 73.5056C154.552 73.0987 153.819 72.9317 152.995 72.998C152.19 73.06 151.362 73.3552 150.593 73.8573C149.813 74.3672 149.162 75.023 148.635 75.8469C148.291 76.3844 148.001 77.0933 147.766 77.9902C147.53 78.886 147.378 79.7596 147.312 80.6002C147.287 81.3035 147.283 82.0943 147.304 82.9657C147.326 83.8372 147.443 85.2373 147.47 85.5569L149.085 84.963C149.853 84.6976 150.659 84.3426 151.502 83.8859C152.344 83.428 153.174 82.8872 153.982 82.2557C154.804 81.6342 155.393 81.0149 155.777 80.4155V80.4144Z" fill="#863AFF"/>
</g>
<defs>
<clipPath id="clip0_128_12129">
<rect width="200" height="200" fill="white"/>
</clipPath>
</defs>
</svg>
