<svg width="137" height="105" viewBox="0 0 137 105" fill="none" xmlns="http://www.w3.org/2000/svg">
<g id="Group 1171276358">
<g id="&#235;&#143;&#132;&#235;&#166;&#172;">
<path id="Vector" d="M43.6051 52.8999V26.7899C43.6051 25.2499 44.1184 23.9665 45.1451 22.9399C46.1718 21.9132 47.4551 21.3999 48.9951 21.3999H50.1851L50.2551 21.3299H54.1751C55.9951 21.3299 56.9051 20.4432 56.9051 18.6699V14.0499C56.9051 12.2765 55.9951 11.3899 54.1751 11.3899H43.6051V0.609863H67.6851V32.1799H57.0451C55.2718 32.1799 54.3851 33.0665 54.3851 34.8399V39.4599C54.3851 41.2799 55.2718 42.1899 57.0451 42.1899H67.6851V52.8999H43.6051ZM86.7251 52.9699H76.0851V18.6699H86.7251V52.9699Z" fill="#E1FCFF"/>
<path id="Vector_2" d="M23.31 45.8301V51.7101H37.03V62.4201H0V51.7101H12.6V45.8301H0.35V23.9201C0.35 22.3801 0.863333 21.1201 1.89 20.1401C2.87 19.1134 4.10667 18.6001 5.6 18.6001H36.96V29.1701H13.58C12.74 29.1701 12.0867 29.4501 11.62 30.0101C11.2 30.5701 10.9667 31.3168 10.92 32.2501C10.9667 33.0434 11.2 33.7434 11.62 34.3501C12.0867 34.9568 12.74 35.2601 13.58 35.2601H36.96V45.8301H23.31Z" fill="#E1FCFF"/>
</g>
<g id="&#235;&#143;&#132;&#235;&#166;&#172;_2">
<path id="Vector_3" d="M93.6051 94.8999V68.7899C93.6051 67.2499 94.1184 65.9665 95.1451 64.9399C96.1718 63.9132 97.4551 63.3999 98.9951 63.3999H100.185L100.255 63.3299H104.175C105.995 63.3299 106.905 62.4432 106.905 60.6699V56.0499C106.905 54.2765 105.995 53.3899 104.175 53.3899H93.6051V42.6099H117.685V74.1799H107.045C105.272 74.1799 104.385 75.0665 104.385 76.8399V81.4599C104.385 83.2799 105.272 84.1899 107.045 84.1899H117.685V94.8999H93.6051ZM136.725 94.9699H126.085V60.6699H136.725V94.9699Z" fill="#863AFF"/>
<path id="Vector_4" d="M73.31 87.8301V93.7101H87.03V104.42H50V93.7101H62.6V87.8301H50.35V65.9201C50.35 64.3801 50.8633 63.1201 51.89 62.1401C52.87 61.1134 54.1067 60.6001 55.6 60.6001H86.96V71.1701H63.58C62.74 71.1701 62.0867 71.4501 61.62 72.0101C61.2 72.5701 60.9667 73.3168 60.92 74.2501C60.9667 75.0434 61.2 75.7434 61.62 76.3501C62.0867 76.9568 62.74 77.2601 63.58 77.2601H86.96V87.8301H73.31Z" fill="#863AFF"/>
</g>
</g>
</svg>
