<svg width="175" height="65" viewBox="0 0 175 65" fill="none" xmlns="http://www.w3.org/2000/svg">
<g id="Group 1171276357">
<g id="Group 1171276356">
<circle id="Ellipse 3354" cx="32.1043" cy="32.1043" r="32.1043" fill="white"/>
<circle id="Ellipse 3355" cx="86.241" cy="32.1043" r="32.1043" fill="white"/>
<circle id="Ellipse 3356" cx="142.896" cy="32.1043" r="32.1043" fill="white"/>
</g>
<path id="Vector" d="M134.235 31.616V12.6606H139.758V16.6156H147.205V12.6606H149.984C150.744 12.6606 151.397 12.9338 151.944 13.4801C152.49 14.0265 152.763 14.6797 152.763 15.4398V31.616H134.235ZM140.435 41.9131V39.9891H133.843V34.5377H152.692V39.9891H145.886V41.9131H152.692V53.0654C152.692 53.8493 152.431 54.5025 151.908 55.0251C151.385 55.5477 150.744 55.809 149.984 55.809H147.276V48.7542C147.276 47.8278 146.813 47.3646 145.886 47.3646H133.986V41.9131H140.435ZM147.205 26.0933V22.1383H139.758V26.0933H147.205Z" fill="#42BDCC"/>
<path id="Vector_2" d="M101.191 15.3685V32.7918H95.7398V26.9128H91.4998L93.21 29.4782L88.1149 32.863L85.7277 28.9437L81.9865 22.7797L78.2453 28.9437L75.8937 32.863L73.2214 31.4734C72.8651 31.2597 72.5326 31.0578 72.2238 30.8677C71.915 30.6777 71.7012 30.4045 71.5824 30.0482C71.3211 29.3594 71.428 28.623 71.9031 27.8392L72.6157 26.6634L75.6443 21.7107L76.1075 20.9269L76.1431 20.8912H71.8318V15.4398H79.243V12.6606H84.6944V15.4398H92.8537V20.8912H87.8655V20.9269L88.3643 21.7107L89.9677 24.3474V21.4613H95.7398V15.3685H101.191ZM92.9606 49.6093C91.8917 49.6093 90.8822 49.4074 89.932 49.0036C89.0057 48.5997 88.1862 48.0415 87.4736 47.3289C86.7609 46.6401 86.2027 45.8206 85.7989 44.8704C85.3951 43.9203 85.1932 42.9108 85.1932 41.8419C85.1932 40.773 85.3951 39.7634 85.7989 38.8133C86.2027 37.8869 86.7609 37.0674 87.4736 36.3548C88.1862 35.6422 89.0057 35.084 89.932 34.6802C90.8822 34.2764 91.8917 34.0745 92.9606 34.0745C94.0295 34.0745 95.0391 34.2764 95.9892 34.6802C96.9393 35.084 97.7707 35.6422 98.4833 36.3548C99.1959 37.0674 99.7541 37.8869 100.158 38.8133C100.562 39.7634 100.764 40.773 100.764 41.8419C100.764 42.9108 100.562 43.9203 100.158 44.8704C99.7541 45.8206 99.1959 46.6401 98.4833 47.3289C97.7707 48.0415 96.9393 48.5997 95.9892 49.0036C95.0391 49.4074 94.0295 49.6093 92.9606 49.6093ZM92.9606 39.5615C92.343 39.5615 91.8086 39.7872 91.3573 40.2385C90.9059 40.6898 90.6803 41.2243 90.6803 41.8419C90.6803 42.4832 90.9059 43.0295 91.3573 43.4809C91.8086 43.9322 92.343 44.1578 92.9606 44.1578C93.602 44.1578 94.1483 43.9322 94.5996 43.4809C95.0509 43.0295 95.2766 42.4832 95.2766 41.8419C95.2766 41.2243 95.0509 40.6898 94.5996 40.2385C94.1483 39.7872 93.602 39.5615 92.9606 39.5615Z" fill="#42BDCC"/>
<path id="Vector_3" d="M22.8054 36.4788V31.0274H41.6539V36.4788H34.8485V38.581C35.7986 38.8423 36.6656 39.2342 37.4495 39.7568C38.2571 40.3031 38.9578 40.9445 39.5517 41.6808C40.1455 42.4409 40.6087 43.2842 40.9413 44.2106C41.2738 45.137 41.4401 46.1109 41.4401 47.1323C41.4401 48.3437 41.2026 49.4839 40.7275 50.5528C40.2762 51.6454 39.6467 52.5837 38.8391 53.3676C38.0315 54.1752 37.0813 54.8046 35.9887 55.256C34.9197 55.731 33.7677 55.9686 32.5325 55.9686C31.3211 55.9686 30.1809 55.731 29.112 55.256C28.0431 54.8046 27.1048 54.1752 26.2972 53.3676C25.4896 52.5837 24.8482 51.6454 24.3732 50.5528C23.9219 49.4839 23.6962 48.3437 23.6962 47.1323C23.6962 46.1821 23.8387 45.2795 24.1238 44.4244C24.4088 43.5692 24.8007 42.7735 25.2996 42.0371C25.7984 41.3245 26.3922 40.695 27.0811 40.1487C27.7937 39.6024 28.5657 39.1629 29.397 38.8304V36.4788H22.8054ZM43.471 25.861L38.3759 29.2458L35.9887 25.3265L32.2475 19.1625L28.5063 25.3265L26.1547 29.2458L23.4824 27.8563C23.1261 27.6425 22.7936 27.4406 22.4848 27.2505C22.176 27.0605 21.9622 26.7873 21.8434 26.431C21.5821 25.7422 21.689 25.0058 22.1641 24.222L22.8767 23.0462L25.9053 18.0936L26.3685 17.3097L26.4041 17.2741H22.0928V11.8226H29.5039V9.04346H34.9554V11.8226H43.1147V17.2741H38.1265V17.3097L38.6253 18.0936L41.6182 23.0462L43.471 25.861ZM32.5681 50.4102C33.0195 50.4102 33.447 50.3271 33.8508 50.1608C34.2546 49.9946 34.5991 49.757 34.8841 49.4482C35.1929 49.1632 35.4304 48.8188 35.5967 48.415C35.7867 48.0111 35.8818 47.5836 35.8818 47.1323C35.8818 46.6809 35.7867 46.2534 35.5967 45.8496C35.4304 45.4458 35.1929 45.0895 34.8841 44.7807C34.5991 44.4956 34.2546 44.2581 33.8508 44.0681C33.447 43.9018 33.0195 43.8186 32.5681 43.8186C32.1168 43.8186 31.6893 43.9018 31.2855 44.0681C30.8816 44.2581 30.5253 44.4956 30.2165 44.7807C29.9315 45.0895 29.694 45.4458 29.5039 45.8496C29.3377 46.2534 29.2545 46.6809 29.2545 47.1323C29.2545 47.5836 29.3377 48.0111 29.5039 48.415C29.694 48.8188 29.9315 49.1632 30.2165 49.4482C30.5253 49.757 30.8816 49.9946 31.2855 50.1608C31.6893 50.3271 32.1168 50.4102 32.5681 50.4102Z" fill="#42BDCC"/>
</g>
</svg>
