<svg width="144" height="100" viewBox="0 0 144 100" fill="none" xmlns="http://www.w3.org/2000/svg">
<g clip-path="url(#clip0_107_9181)">
<path d="M91.1067 153.66C83.9071 153.66 79.0332 150.691 76.0959 148.228C75.4672 148.273 74.8221 148.296 74.1629 148.296C71.3303 148.296 68.5504 147.891 66.1461 147.369C64.8448 148.644 63.191 149.812 61.1118 150.927C58.4024 152.38 55.2936 153.148 52.121 153.148C45.9035 153.148 39.9874 150.295 37.399 146.05C35.7295 143.312 35.5158 140.088 36.7992 137.334C36.5171 137.11 36.2373 136.881 35.9596 136.646C32.0099 133.292 29.8423 129.847 29.0941 128.521C29.0807 128.498 29.0681 128.474 29.0555 128.452C26.0893 123.062 24.2231 117.063 23.5098 110.62C22.8885 105.006 23.1364 98.9882 24.2469 92.7323C25.6031 85.0939 28.089 77.9333 30.7442 71.856C27.5998 71.149 24.5564 70.0076 21.723 68.459C16.4765 65.5913 12.0583 61.3785 8.9473 56.2758C6.55338 52.3504 5.0079 48.0737 4.35245 43.5648C3.72001 39.2138 3.94122 34.8365 5.01013 30.5539C6.07905 26.2713 7.94296 22.296 10.5499 18.7373C13.2512 15.0501 16.6316 11.9787 20.5962 9.60851C25.9542 6.40632 32.0804 4.713 38.3127 4.713C43.1518 4.713 47.881 5.72282 52.2109 7.61385C52.2695 7.42938 52.3319 7.24564 52.3979 7.06264C53.3013 4.5807 54.996 2.61618 57.2993 1.38219C59.0089 0.466443 60.9752 0.00195312 63.145 0.00195312C66.3265 0.00195312 69.5213 1.0081 71.919 2.01352C74.7241 1.2058 78.8751 0.401032 84.2783 0.401032C91.7362 0.401032 99.154 1.94737 106.325 4.99669C110.304 6.68855 114.108 8.87282 117.631 11.4893C120.653 13.7338 123.48 16.3032 126.036 19.1269C129.459 22.9097 132.445 27.2679 134.291 31.1279C136.487 33.088 140.093 36.8576 141.423 41.4385C142.257 44.3166 141.722 47.299 139.954 49.623C138.667 51.3148 136.839 52.5466 134.489 53.3124C134.496 53.7144 134.496 54.1179 134.489 54.52C137.836 56.6462 140.155 59.2067 141.407 62.1701C142.588 64.9614 141.919 68.1834 139.723 70.2883C138.855 71.121 137.818 71.7112 136.709 72.0427C136.98 73.0466 137.14 74.0535 137.187 75.0619C137.328 78.0847 135.584 80.8849 132.791 82.1152C131.821 82.5429 130.793 82.7509 129.774 82.7509C127.86 82.7509 125.975 82.0182 124.556 80.6306L122.833 78.9461C121.321 80.2043 119.686 81.3339 117.948 82.3217C115.419 91.1264 115.86 99.6004 116.326 108.523C116.543 112.7 116.769 117.019 116.675 121.399C116.67 121.634 116.662 121.874 116.65 122.113C116.646 122.191 116.642 122.265 116.637 122.339L116.634 122.371C116.626 122.521 116.617 122.672 116.606 122.821C116.6 122.904 116.592 122.984 116.585 123.065L116.578 123.142C116.567 123.269 116.556 123.395 116.542 123.52C116.534 123.606 116.524 123.688 116.514 123.772L116.505 123.848C116.491 123.969 116.477 124.091 116.461 124.21C116.449 124.301 116.436 124.385 116.424 124.469L116.415 124.529C116.398 124.652 116.379 124.775 116.36 124.898C116.346 124.985 116.33 125.074 116.315 125.162L116.308 125.198C116.286 125.323 116.264 125.448 116.24 125.571C116.223 125.66 116.205 125.751 116.186 125.842L116.18 125.869C116.155 125.99 116.13 126.114 116.102 126.236C116.08 126.337 116.057 126.434 116.034 126.531C116.006 126.652 115.977 126.772 115.946 126.89C115.921 126.991 115.895 127.087 115.87 127.183C115.838 127.302 115.805 127.421 115.772 127.539C115.744 127.634 115.717 127.73 115.688 127.825C115.653 127.941 115.617 128.059 115.58 128.176C115.549 128.272 115.52 128.364 115.489 128.455C115.45 128.572 115.41 128.688 115.37 128.802C115.338 128.893 115.307 128.982 115.275 129.071C115.23 129.192 115.187 129.306 115.143 129.42C115.111 129.505 115.076 129.593 115.041 129.681C114.995 129.797 114.948 129.911 114.901 130.023L114.89 130.049C114.858 130.126 114.826 130.202 114.794 130.277C114.745 130.391 114.693 130.504 114.642 130.618L114.626 130.653C114.594 130.723 114.562 130.793 114.529 130.862C114.475 130.976 114.42 131.089 114.365 131.203L114.351 131.229C114.318 131.297 114.285 131.364 114.251 131.43C114.192 131.547 114.132 131.66 114.073 131.773C114.072 131.774 114.057 131.802 114.057 131.802C114.025 131.863 113.992 131.925 113.959 131.986C113.893 132.108 113.826 132.226 113.759 132.345C113.76 132.343 113.763 132.339 113.763 132.339L113.754 132.353C113.721 132.413 113.687 132.473 113.653 132.531C113.58 132.656 113.506 132.779 113.431 132.902C113.399 132.955 113.368 133.007 113.335 133.059C113.244 133.206 113.147 133.357 113.048 133.508C113.037 133.525 113.008 133.571 113.004 133.577C112.78 133.915 112.543 134.253 112.299 134.58C112.27 134.619 112.238 134.661 112.205 134.703C112.116 134.821 112.027 134.938 111.936 135.052C111.897 135.102 111.859 135.149 111.821 135.197L111.817 135.202C111.735 135.304 111.649 135.41 111.562 135.514C111.522 135.562 111.481 135.61 111.441 135.657L111.429 135.671C111.349 135.766 111.265 135.864 111.18 135.961C111.137 136.009 111.095 136.056 111.053 136.103L111.035 136.122C110.955 136.212 110.873 136.303 110.789 136.394C110.748 136.438 110.702 136.487 110.656 136.535L110.637 136.555C110.556 136.641 110.476 136.726 110.393 136.81C110.346 136.858 110.302 136.904 110.257 136.948L110.238 136.968C110.153 137.054 110.072 137.134 109.99 137.215C109.934 137.27 109.88 137.321 109.827 137.372C109.743 137.452 109.661 137.53 109.579 137.606C109.524 137.658 109.468 137.708 109.413 137.759C109.329 137.836 109.246 137.911 109.162 137.986C109.107 138.035 109.049 138.085 108.991 138.135C108.91 138.206 108.825 138.278 108.741 138.35C108.686 138.396 108.629 138.444 108.572 138.492C108.485 138.563 108.402 138.632 108.317 138.701L108.304 138.711C108.25 138.754 108.196 138.798 108.142 138.841C108.059 138.906 107.972 138.975 107.885 139.042C107.832 139.083 107.775 139.126 107.718 139.17C107.627 139.238 107.541 139.303 107.454 139.366L107.427 139.386C107.379 139.421 107.333 139.456 107.285 139.491C107.249 139.517 107.213 139.543 107.178 139.569C107.432 140.697 107.5 141.861 107.374 143.028C107.117 145.428 106.064 147.626 104.332 149.386C102.767 150.976 100.683 152.131 98.3063 152.727C95.8396 153.346 93.4175 153.66 91.1067 153.66Z" fill="white"/>
<path d="M35.5715 124.933C21.7401 99.8055 39.9993 65.994 50.8584 52.2291C68.8807 52.6062 99.0204 68.9743 111.837 77.1102C106.219 92.8073 109.557 106.947 109.252 121.243C109.018 132.125 99.8488 136.167 93.9208 137.297C94.6832 137.298 95.8745 137.525 97.5002 138.322C100.986 140.032 101.016 144.466 96.4825 145.603C85.5306 148.35 80.5104 142.347 78.5574 140.367C73.169 142.023 65.072 139.736 61.696 138.387C62.618 139.181 63.0849 141.509 57.5755 144.463C50.6884 148.157 41.9879 143.323 43.5772 140.333C44.8487 137.941 48.6352 136.175 50.3692 135.592C42.7837 134.595 37.3433 128.071 35.5715 124.933Z" fill="#E2B692"/>
<path d="M50.8585 52.2291C40.0002 65.994 21.7403 99.8055 35.5716 124.933C37.3435 128.071 42.7838 134.595 50.3694 135.592C48.6353 136.175 44.8489 137.941 43.5773 140.333C41.9873 143.323 50.6878 148.157 57.5756 144.463C63.085 141.509 62.6188 139.181 61.6961 138.387C65.0714 139.736 73.1692 142.023 78.5575 140.367C80.5105 142.347 85.5307 148.35 96.4826 145.603C101.016 144.466 100.986 140.032 97.5003 138.322C94.9587 137.076 93.477 137.223 93.0421 137.447C98.8906 136.562 109.007 132.679 109.252 121.243C109.557 106.947 106.219 92.8073 111.837 77.1102C99.0206 68.9743 68.8809 52.6062 50.8585 52.2291Z" stroke="#412E1F" stroke-width="3.00484" stroke-linecap="round" stroke-linejoin="round"/>
<path d="M48.0087 47.4667C41.6063 31.1934 55.6299 21.3634 63.4419 18.4832C61.4547 17.2455 57.8605 13.7273 59.38 9.55129C60.8995 5.37529 68.0746 8.08359 71.4721 9.95992C75.9831 7.94909 88.6824 5.49141 103.396 11.7473C118.108 18.0032 126.05 30.2791 128.181 35.6355C129.821 36.8849 133.339 40.2003 134.287 43.4664C135.234 46.7325 129.208 47.0772 126.076 46.8413C129.629 59.0893 123.703 74.1381 107.825 78.6022C91.9477 83.0663 56.0114 67.8087 48.0087 47.4667Z" fill="#E2B692" stroke="#583F2B" stroke-width="2.7918" stroke-linecap="round" stroke-linejoin="round"/>
<path d="M83.349 35.9653C59.9287 37.9262 56.7887 52.4804 58.1464 59.5125C65.1389 66.9002 82.7997 80.807 97.504 77.3321C115.885 72.9885 106.648 53.1007 100.7 43.8212C95.9422 36.3975 87.1503 35.4906 83.349 35.9653Z" fill="#F5EAD6"/>
<path d="M48.0087 47.4667C41.6063 31.1934 55.6299 21.3634 63.4419 18.4832C61.4547 17.2455 57.8605 13.7273 59.38 9.55129C60.8995 5.37529 68.0746 8.08359 71.4721 9.95992C75.9831 7.94909 88.6824 5.49141 103.396 11.7473C118.108 18.0032 126.05 30.2791 128.181 35.6355C129.821 36.8849 133.339 40.2003 134.287 43.4664C135.234 46.7325 129.208 47.0772 126.076 46.8413C129.629 59.0893 123.703 74.1381 107.825 78.6022C91.9477 83.0663 56.0114 67.8087 48.0087 47.4667Z" stroke="#412E1F" stroke-width="2.7918" stroke-linecap="round" stroke-linejoin="round"/>
<path d="M88.4568 35.4106C82.943 34.9409 87.8437 39.6924 90.9836 42.1273C95.4092 43.6244 99.6923 43.4267 99.7264 42.0325C99.7598 40.6376 95.3498 35.9978 88.4568 35.4106Z" fill="#412E1F"/>
<path d="M71.4508 34.358C69.8638 37.6278 70.0308 44.4408 83.3989 45.53C84.9496 45.2169 88.9239 45.5675 92.4149 49.4731C96.7797 54.3553 108.213 57.193 110.755 52.3585" stroke="#412E1F" stroke-width="1.86169" stroke-linecap="round"/>
<path d="M91.5352 41.8282L89.4062 46.4371" stroke="#412E1F" stroke-width="2.7918"/>
<path d="M113.821 55.6174C119.674 56.2407 132.015 58.9909 134.558 65.0064" stroke="#412E1F" stroke-width="1.86169" stroke-linecap="round"/>
<path d="M113.547 59.5353C118.828 62.1091 129.466 68.8861 129.77 75.4" stroke="#412E1F" stroke-width="1.86169" stroke-linecap="round"/>
<path d="M62.0882 31.1814C57.7836 27.2061 47.6104 19.7625 41.3513 21.7924" stroke="#412E1F" stroke-width="1.86169" stroke-linecap="round"/>
<path d="M59.2742 33.9502C53.8532 31.6785 41.7181 28.1441 36.5427 32.1775" stroke="#412E1F" stroke-width="1.86169" stroke-linecap="round"/>
<path d="M86.5937 26.8433C86.8146 25.5898 85.5572 24.3253 83.785 24.0191C82.0129 23.7129 80.3972 24.4808 80.1762 25.7344C79.9553 26.9879 81.2127 28.2524 82.9848 28.5586C84.757 28.8648 86.3727 28.0969 86.5937 26.8433Z" fill="#F5EAD6"/>
<path d="M111.295 39.823C112.108 38.8376 111.638 37.1252 110.245 35.9983C108.852 34.8714 107.064 34.7567 106.25 35.7421C105.437 36.7275 105.907 38.4399 107.3 39.5668C108.694 40.6937 110.482 40.8084 111.295 39.823Z" fill="#F5EAD6"/>
<path d="M80.7951 31.2873C82.2489 29.8479 82.2489 27.5142 80.7951 26.0748C79.3413 24.6354 76.9843 24.6354 75.5305 26.0748C74.0767 27.5142 74.0767 29.8479 75.5305 31.2873C76.9843 32.7267 79.3413 32.7267 80.7951 31.2873Z" fill="#412E1F"/>
<path d="M114.552 45.1534C115.407 43.3021 114.584 41.1152 112.714 40.2688C110.844 39.4224 108.636 40.237 107.781 42.0883C106.926 43.9395 107.749 46.1265 109.618 46.9729C111.488 47.8193 113.697 47.0047 114.552 45.1534Z" fill="#412E1F"/>
<path d="M101.089 84.9882C92.7333 84.7633 76.7434 86.4514 79.6302 95.007C83.2385 105.702 92.9419 99.882 103.709 101.864" stroke="#412E1F" stroke-width="3.00484" stroke-linecap="round" stroke-linejoin="round"/>
<path d="M44.3095 41.9603L38.3684 45.5115L73.7182 103.486L79.6593 99.9344L44.3095 41.9603Z" fill="#412E1F"/>
<path d="M57.3639 57.5454C67.8723 47.1411 67.8723 30.2723 57.3639 19.8679C46.8555 9.46357 29.818 9.46357 19.3096 19.8679C8.80121 30.2723 8.80121 47.1411 19.3096 57.5454C29.818 67.9498 46.8555 67.9498 57.3639 57.5454Z" fill="white" stroke="#412E1F" stroke-width="2.96921"/>
<mask id="mask0_107_9181" style="mask-type:luminance" maskUnits="userSpaceOnUse" x="14" y="15" width="49" height="48">
<path d="M44.2172 15.1449L14.5405 32.8838L32.4568 62.2666L62.1334 44.5278L44.2172 15.1449Z" fill="white"/>
</mask>
<g mask="url(#mask0_107_9181)">
<path d="M42.3888 23.0214L34.5435 54.4538" stroke="#42BDCC" stroke-width="4.33356"/>
<path d="M54.1781 42.7188L22.4321 34.9503" stroke="#42BDCC" stroke-width="4.33356"/>
</g>
<path d="M66.2248 85.9959C70.9689 78.2943 55.7643 73.1122 47.5686 71.4835L41.207 87.3541C52.1493 87.8024 60.2946 95.6223 66.2248 85.9959Z" fill="#E2B692"/>
<path d="M49.736 71.4277C57.9318 73.0564 73.1363 78.2393 68.3923 85.9401C62.4621 95.5665 54.3168 87.7466 43.3745 87.2983" stroke="#412E1F" stroke-width="3.00484" stroke-linecap="round" stroke-linejoin="round"/>
</g>
<defs>
<clipPath id="clip0_107_9181">
<rect width="144" height="100" fill="white"/>
</clipPath>
</defs>
</svg>
