<svg width="144" height="100" viewBox="0 0 144 100" fill="none" xmlns="http://www.w3.org/2000/svg">
<g clip-path="url(#clip0_107_9180)">
<path d="M141.841 47.6147C140.241 43.335 137.826 39.4711 134.663 36.1307C131.387 32.6708 127.514 29.9858 123.151 28.1486C122.209 27.7519 121.254 27.3988 120.288 27.0899C121.206 26.4404 122.009 25.6722 122.684 24.7927C124.074 22.9849 124.809 20.8558 124.809 18.6345C124.809 16.4132 124.087 14.3157 122.721 12.5117C121.596 11.021 120.06 9.80899 118.278 9.00466C118.275 9.00318 118.272 9.00171 118.269 9.00024C117.372 8.59696 116.442 8.30428 115.485 8.12145C115.315 7.30532 115.043 6.51057 114.668 5.75122C113.694 3.77689 112.109 2.19772 110.084 1.18328C108.542 0.408436 106.774 -0.000732422 104.972 -0.000732422C104.831 -0.000732422 104.688 0.0014793 104.546 0.00663998C104.543 0.00663998 104.539 0.00663998 104.535 0.00663998C102.751 0.0715171 101.024 0.510175 99.3991 1.31229C98.2394 1.88587 97.149 2.67619 96.0689 3.72602C95.2255 4.54509 94.4728 5.4143 93.8329 6.31005C93.7724 6.39483 93.7135 6.48035 93.6567 6.56808C93.2586 7.17851 92.8538 7.84277 92.4513 8.54831C92.2574 8.88891 92.0296 9.31577 91.7612 9.83995C88.8565 7.87373 85.1976 6.00262 81.3639 4.54288C74.7863 2.03921 67.9757 0.769684 61.1215 0.769684C59.1583 0.769684 57.178 0.878058 55.2361 1.09112C39.9325 2.77055 29.3369 9.89672 24.0251 15.3184C22.9354 15.4445 21.7175 15.6406 20.4605 15.9443C16.7035 16.8526 13.8416 18.4531 11.9557 20.7032C9.93198 23.1169 9.1107 26.161 9.64225 29.2736C10.1686 32.3538 11.7014 35.0595 14.0473 37.1237C8.71038 37.7637 4.6445 39.5876 1.92482 42.5697C-0.120289 44.8132 -0.581802 48.0806 0.762187 50.8018C1.29374 51.8781 2.06489 52.7827 2.99013 53.4662C2.39739 54.3236 1.9086 55.2215 1.52449 56.1586C0.372925 58.9674 1.06077 62.1943 3.25775 64.2896C4.6585 65.6262 6.49055 66.3273 8.34765 66.3273C9.40191 66.3273 10.465 66.101 11.4618 65.6365L14.1711 64.3729C14.177 64.3832 14.1836 64.3935 14.1895 64.4039C15.103 65.969 16.1926 67.4634 17.4496 68.876C16.0666 72.341 14.8553 75.9866 13.832 79.7687C12.1813 85.8701 11.1064 92.0378 10.6368 98.0987C10.1119 104.872 10.3581 111.39 11.3689 117.474C12.5131 124.359 14.6407 130.69 17.6929 136.29C17.7054 136.314 17.718 136.336 17.7312 136.359C18.4751 137.689 20.6279 141.146 24.55 144.51C24.825 144.746 25.1029 144.976 25.3838 145.2C24.1099 147.964 24.3222 151.198 25.9802 153.945C28.551 158.203 34.4268 161.063 40.6012 161.063C43.7521 161.063 46.8397 160.293 49.5306 158.835C51.5957 157.717 53.2375 156.546 54.5299 155.268C56.9171 155.791 59.678 156.197 62.4921 156.197C63.1467 156.197 63.7874 156.174 64.4126 156.128C67.3298 158.6 72.1706 161.578 79.3203 161.578C81.6153 161.578 84.0217 161.263 86.4715 160.642C88.8322 160.045 90.9016 158.886 92.4557 157.291C94.1764 155.525 95.2211 153.32 95.4777 150.912C95.6023 149.742 95.5344 148.575 95.2823 147.443C95.3162 147.419 95.3501 147.394 95.384 147.369C95.4393 147.329 95.4939 147.288 95.5485 147.248L95.561 147.238C95.6435 147.176 95.7269 147.114 95.8102 147.05C95.8699 147.004 95.9296 146.958 95.9886 146.911C96.0704 146.848 96.1515 146.784 96.2326 146.719C96.2968 146.668 96.3601 146.616 96.4199 146.567C96.5002 146.501 96.5813 146.435 96.6609 146.368C96.7221 146.316 96.7841 146.265 96.8453 146.212C96.9234 146.145 97.0008 146.078 97.0804 146.008C97.1409 145.954 97.2021 145.901 97.2596 145.848C97.3355 145.78 97.4115 145.711 97.4866 145.642C97.5478 145.586 97.609 145.529 97.6695 145.472C97.7462 145.4 97.8221 145.328 97.898 145.255C97.901 145.252 97.9165 145.237 97.9165 145.237C97.9718 145.183 98.0278 145.129 98.0823 145.075C98.1583 145 98.2335 144.925 98.3043 144.852L98.3153 144.84C98.3699 144.785 98.4244 144.729 98.4819 144.67C98.5549 144.594 98.6272 144.518 98.6994 144.44C98.7001 144.439 98.7245 144.414 98.7245 144.414C98.7761 144.359 98.827 144.304 98.8734 144.254C98.9493 144.171 99.0245 144.087 99.099 144.003L99.1145 143.985C99.1639 143.93 99.2125 143.875 99.2612 143.819C99.3334 143.736 99.4057 143.651 99.4772 143.567L99.5015 143.538C99.5495 143.482 99.5966 143.426 99.6416 143.37C99.7139 143.283 99.7861 143.193 99.8569 143.104L99.8812 143.073C99.924 143.02 99.9667 142.966 100.01 142.91C100.088 142.81 100.166 142.708 100.242 142.606L100.248 142.599C100.289 142.545 100.33 142.491 100.372 142.433C100.46 142.315 100.548 142.193 100.646 142.052C100.672 142.018 100.697 141.982 100.722 141.945C100.839 141.779 100.955 141.607 101.066 141.437C101.096 141.39 101.126 141.343 101.158 141.293C101.227 141.186 101.308 141.06 101.396 140.917C101.432 140.856 101.469 140.796 101.505 140.735L101.519 140.712C101.584 140.604 101.648 140.497 101.708 140.393C101.747 140.326 101.786 140.257 101.823 140.188L101.842 140.155C101.9 140.052 101.957 139.95 102.015 139.842C102.052 139.773 102.088 139.704 102.124 139.635L102.148 139.588C102.201 139.487 102.254 139.386 102.306 139.28C102.341 139.21 102.375 139.139 102.41 139.069L102.432 139.023C102.483 138.919 102.533 138.814 102.582 138.709C102.616 138.634 102.65 138.559 102.684 138.483L102.699 138.45C102.747 138.343 102.795 138.236 102.842 138.127C102.877 138.046 102.911 137.964 102.945 137.882L102.956 137.857C103.002 137.747 103.047 137.637 103.09 137.526C103.125 137.438 103.159 137.35 103.193 137.262C103.193 137.26 103.196 137.254 103.196 137.254C103.238 137.142 103.28 137.03 103.321 136.917C103.354 136.824 103.388 136.732 103.418 136.64C103.458 136.527 103.496 136.415 103.533 136.303C103.565 136.206 103.596 136.108 103.626 136.012C103.663 135.898 103.697 135.783 103.731 135.669C103.761 135.57 103.789 135.47 103.818 135.37C103.851 135.254 103.882 135.138 103.912 135.023C103.939 134.922 103.966 134.82 103.991 134.717C104.021 134.6 104.049 134.482 104.075 134.37C104.1 134.268 104.123 134.165 104.146 134.061C104.172 133.943 104.197 133.823 104.222 133.702L104.228 133.671C104.246 133.581 104.264 133.491 104.283 133.394C104.307 133.271 104.328 133.147 104.349 133.026L104.356 132.988C104.371 132.901 104.386 132.813 104.4 132.725C104.419 132.604 104.437 132.482 104.454 132.36L104.462 132.303C104.475 132.216 104.487 132.128 104.5 132.038C104.516 131.92 104.53 131.802 104.543 131.683L104.553 131.597C104.563 131.513 104.573 131.429 104.581 131.345C104.594 131.217 104.605 131.087 104.617 130.958L104.623 130.887C104.631 130.806 104.638 130.725 104.644 130.643C104.655 130.496 104.664 130.347 104.672 130.198L104.674 130.161C104.679 130.086 104.684 130.01 104.687 129.933C104.699 129.695 104.707 129.454 104.712 129.217C104.801 125.044 104.577 119.636 104.318 113.375C104.052 106.937 103.762 99.9256 103.763 93.1142C105.782 93.4828 107.839 93.6708 109.906 93.6708H109.908C118.661 93.6708 126.984 90.3547 133.342 84.3344C136.683 81.1717 139.305 77.4456 141.137 73.2596C142.905 69.2202 143.863 64.9288 143.984 60.5053C144.105 56.0819 143.384 51.7447 141.838 47.6147H141.841Z" fill="white"/>
<path d="M24.1665 132.762C10.4295 107.558 21.3893 70.9683 32.1736 57.1605C50.0731 57.5387 86.7545 57.4399 99.4837 65.6019C93.9042 81.3472 97.6465 114.721 97.3435 129.061C97.1127 139.977 88.0048 144.033 82.1172 145.165C82.8744 145.166 84.0577 145.394 85.6722 146.194C89.1343 147.909 89.1638 152.356 84.6615 153.496C73.7842 156.253 68.799 150.23 66.8586 148.245C61.507 149.905 53.4644 147.613 50.1122 146.258C51.0278 147.055 51.4915 149.39 46.019 152.354C39.1789 156.058 30.5377 151.21 32.1169 148.21C33.3798 145.811 37.1404 144.04 38.8626 143.455C31.3288 142.456 25.9255 135.91 24.1657 132.762H24.1665Z" fill="#E2B692"/>
<path d="M32.1744 57.1605C21.39 70.9683 10.4302 107.558 24.1672 132.762C25.927 135.91 31.3302 142.456 38.8641 143.455C37.1419 144.04 33.3812 145.811 32.1183 148.21C30.5392 151.21 39.1804 156.058 46.0205 152.354C51.493 149.39 51.0293 147.055 50.1136 146.258C53.4659 147.613 61.5084 149.905 66.86 148.245C68.7997 150.23 73.7857 156.253 84.6629 153.496C89.1652 152.356 89.1358 147.909 85.6737 146.194C83.1494 144.943 81.6778 145.091 81.2458 145.316C87.0545 144.428 97.1024 140.534 97.3449 129.061C97.6479 114.721 93.9057 81.3472 99.4851 65.6019C86.756 57.4399 50.0746 57.5387 32.1751 57.1605H32.1744Z" stroke="#412E1F" stroke-width="2.98435" stroke-linecap="round" stroke-linejoin="round"/>
<path d="M25.8114 66.6952C12.238 55.6197 19.5036 40.1789 24.8331 33.8431C22.5041 33.7347 17.659 32.4209 16.9092 28.0321C16.1594 23.6433 23.6992 22.4984 27.5631 22.4741C30.4685 18.5122 40.2318 10.1548 56.0397 8.42007C71.8476 6.68535 84.7766 13.5181 89.2649 17.1512C91.3005 17.4395 95.979 18.6132 98.4111 21.0011C100.844 23.389 95.805 26.638 92.9814 27.9643C102.104 36.9188 104.415 52.956 92.8966 64.6192C81.3772 76.2823 42.7775 80.5399 25.8106 66.6952H25.8114Z" fill="#E2B692" stroke="#583F2B" stroke-width="2.77276" stroke-linecap="round" stroke-linejoin="round"/>
<path d="M50.6763 39.3672C31.4011 52.5343 35.8769 66.777 40.5237 72.2518C50.2177 75.2811 72.3541 78.7837 83.3471 68.5575C97.0892 55.7744 79.2805 42.9302 69.5548 37.7386C61.774 33.585 53.727 37.0935 50.6755 39.3672H50.6763Z" fill="#F5EAD6"/>
<path d="M25.8114 66.6952C12.238 55.6197 19.5036 40.1789 24.8331 33.8431C22.5041 33.7347 17.659 32.4209 16.9092 28.0321C16.1594 23.6433 23.6992 22.4984 27.5631 22.4741C30.4685 18.5122 40.2318 10.1548 56.0397 8.42007C71.8476 6.68535 84.7766 13.5181 89.2649 17.1512C91.3005 17.4395 95.979 18.6132 98.4111 21.0011C100.844 23.389 95.805 26.638 92.9814 27.9643C102.104 36.9188 104.415 52.956 92.8966 64.6192C81.3772 76.2823 42.7775 80.5399 25.8106 66.6952H25.8114Z" stroke="#412E1F" stroke-width="2.77276" stroke-linecap="round" stroke-linejoin="round"/>
<path d="M54.8173 36.3851C49.8188 38.6721 56.4031 40.4237 60.3193 41.0135C64.8843 40.1561 68.4894 37.8884 67.8296 36.6542C67.1697 35.4201 61.0654 33.5269 54.8173 36.3851Z" fill="#412E1F"/>
<path d="M60.6482 40.4827L61.0854 45.5475" stroke="#412E1F" stroke-width="2.77276"/>
<path d="M86.7251 41.6195C92.0915 39.3009 104.117 35.6655 109.288 39.6732" stroke="#412E1F" stroke-width="1.849" stroke-linecap="round"/>
<path d="M88.4229 45.1745C94.2596 44.8383 106.803 45.5512 110.284 51.0894" stroke="#412E1F" stroke-width="1.849" stroke-linecap="round"/>
<path d="M29.9353 45.5911C24.2504 44.2257 11.78 42.704 7.37207 47.5374" stroke="#412E1F" stroke-width="1.849" stroke-linecap="round"/>
<path d="M28.8707 49.3842C23.0627 50.0528 10.8268 52.903 8.34595 58.9557" stroke="#412E1F" stroke-width="1.849" stroke-linecap="round"/>
<path d="M46.6989 33.0774C48.3819 32.4778 49.3989 31.0169 48.9705 29.8145C48.5421 28.612 46.8305 28.1234 45.1475 28.723C43.4645 29.3226 42.4474 30.7835 42.8758 31.9859C43.3042 33.1883 45.0158 33.677 46.6989 33.0774Z" fill="#F5EAD6"/>
<path d="M76.7428 29.0688C76.959 27.8108 75.7068 26.5457 73.946 26.2431C72.1851 25.9405 70.5824 26.7151 70.3663 27.9731C70.1501 29.2311 71.4023 30.4963 73.1631 30.7988C74.924 31.1014 76.5267 30.3268 76.7428 29.0688Z" fill="#F5EAD6"/>
<path d="M54.6109 93.704C59.3226 85.9792 44.2217 80.7802 36.0818 79.1465L29.7637 95.0664C40.6313 95.5162 48.7211 103.36 54.6109 93.704Z" fill="#E2B692"/>
<path d="M38.2344 79.0912C46.3743 80.7242 61.4752 85.9232 56.7635 93.648C50.8737 103.304 42.7839 95.4609 31.9163 95.0104" stroke="#412E1F" stroke-width="2.98435" stroke-linecap="round" stroke-linejoin="round"/>
<path d="M103.24 61.0709L53.908 107.771L58.6463 112.777L107.979 66.0763L103.24 61.0709Z" fill="#412E1F"/>
<path d="M128.8 78.4709C139.237 68.0341 139.237 51.1128 128.8 40.6761C118.363 30.2393 101.442 30.2393 91.0051 40.6761C80.5683 51.1128 80.5683 68.0341 91.0051 78.4709C101.442 88.9076 118.363 88.9076 128.8 78.4709Z" fill="white" stroke="#412E1F" stroke-width="2.94896"/>
<path d="M109.835 71.2764C116.316 71.2764 121.57 66.0227 121.57 59.5418C121.57 53.0609 116.316 47.8071 109.835 47.8071C103.354 47.8071 98.1006 53.0609 98.1006 59.5418C98.1006 66.0227 103.354 71.2764 109.835 71.2764Z" stroke="#863AFF" stroke-width="4.69401"/>
<path d="M67.4431 93.9664C68.2261 84.9515 83.47 89.714 90.995 93.2218L86.649 109.789C77.6289 103.711 66.4648 105.234 67.4431 93.9664Z" fill="#E2B692"/>
<path d="M89.2943 91.9015C81.7701 88.393 66.5254 83.6312 65.7425 92.6454C64.7641 103.914 75.9282 102.39 84.949 108.468" stroke="#412E1F" stroke-width="2.98435" stroke-linecap="round" stroke-linejoin="round"/>
<path d="M41.6516 31.3933C43.8014 31.2746 48.4121 31.4869 49.6573 33.2836C46.9317 33.33 40.8959 33.967 38.5508 36.1382" stroke="#412E1F" stroke-width="1.8431" stroke-linecap="round" stroke-linejoin="round"/>
<path d="M77.5509 27.564C75.4785 28.1471 71.1841 29.8391 70.5869 31.9417C73.1805 31.1042 79.0984 29.7543 82.0193 31.0504" stroke="#412E1F" stroke-width="1.8431" stroke-linecap="round" stroke-linejoin="round"/>
<path d="M54.4885 46.1285C60.2574 43.3373 64.5688 45.2703 66.7031 46.0437C70.5043 47.4223 76.4155 53.4434 72.5162 55.2725C68.6162 57.1016 66.7768 55.6942 62.5097 55.2725C58.2418 54.8508 51.6936 57.4672 49.3757 55.6942C47.0579 53.9219 47.2783 49.6171 54.4892 46.1278L54.4885 46.1285Z" fill="#FFCFCF" stroke="#412E1F" stroke-width="2.21172" stroke-linecap="round" stroke-linejoin="round"/>
<path d="M113.087 21.9691C113.86 21.9691 114.582 21.8216 115.245 21.5194C115.908 21.2171 116.445 20.8124 116.84 20.2985C117.235 19.7846 117.436 19.2325 117.436 18.6345C117.436 18.0366 117.235 17.4786 116.84 16.9581C116.456 16.4486 115.907 16.0232 115.245 15.7247C114.574 15.4224 113.86 15.2683 113.087 15.2683C112.583 15.2683 111.987 15.3774 111.291 15.6023C110.593 15.8271 109.947 16.097 109.359 16.4118C108.881 16.6941 108.352 17.0281 107.781 17.4137C107.21 17.7993 106.328 18.4738 106.127 18.6279L107.21 19.4499C107.713 19.848 108.293 20.2336 108.956 20.6C109.619 20.9664 110.333 21.2871 111.097 21.557C111.861 21.8393 112.525 21.9684 113.087 21.9684V21.9691Z" fill="#863AFF"/>
<path d="M105.633 13.9295C106.325 13.5874 106.907 13.1355 107.368 12.5708C107.829 12.0061 108.132 11.4052 108.258 10.7697C108.384 10.1342 108.32 9.54958 108.056 9.01434C107.792 8.47837 107.363 8.06699 106.779 7.77504C106.21 7.48825 105.528 7.35039 104.802 7.37546C104.066 7.402 103.359 7.57967 102.666 7.92175C102.214 8.14514 101.728 8.50638 101.203 9.01655C100.677 9.52672 100.217 10.0546 99.8294 10.5972C99.5257 11.0624 99.1991 11.5962 98.8577 12.1948C98.5171 12.7934 98.0254 13.7887 97.9126 14.0158L99.2477 14.2731C99.8759 14.4073 100.566 14.4965 101.323 14.5304C102.079 14.565 102.862 14.537 103.667 14.4404C104.477 14.3556 105.128 14.1772 105.633 13.928V13.9295Z" fill="#863AFF"/>
</g>
<defs>
<clipPath id="clip0_107_9180">
<rect width="144" height="100" fill="white"/>
</clipPath>
</defs>
</svg>
